<svg xmlns="http://www.w3.org/2000/svg" xmlns:xlink="http://www.w3.org/1999/xlink" width="1495" height="318.521" viewBox="0 0 1495 318.521">
  <defs>
    <clipPath id="clip-path">
      <rect width="1495" height="291" fill="none"/>
    </clipPath>
    <clipPath id="clip-path-2">
      <rect width="1474" height="185" fill="none"/>
    </clipPath>
  </defs>
  <g id="Group_2956" data-name="Group 2956" transform="translate(-213 -3621)">
    <g id="Repeat_Grid_4" data-name="Repeat Grid 4" transform="translate(213 3621)" clip-path="url(#clip-path)">
      <g transform="translate(-172 -3635)">
        <path id="Path_6318" data-name="Path 6318" d="M143,0A143,143,0,1,1,0,143,143,143,0,0,1,143,0Z" transform="translate(172 3636)" fill="#ef6624"/>
      </g>
      <g transform="translate(231 -3635)">
        <path id="Path_6318-2" data-name="Path 6318" d="M143,0A143,143,0,1,1,0,143,143,143,0,0,1,143,0Z" transform="translate(172 3636)" fill="#ef6624"/>
      </g>
      <g transform="translate(634 -3635)">
        <path id="Path_6318-3" data-name="Path 6318" d="M143,0A143,143,0,1,1,0,143,143,143,0,0,1,143,0Z" transform="translate(172 3636)" fill="#ef6624"/>
      </g>
      <g transform="translate(1037 -3635)">
        <path id="Path_6318-4" data-name="Path 6318" d="M143,0A143,143,0,1,1,0,143,143,143,0,0,1,143,0Z" transform="translate(172 3636)" fill="#ef6624"/>
      </g>
    </g>
    <g id="Repeat_Grid_1" data-name="Repeat Grid 1" transform="translate(233.656 3754.521)" clip-path="url(#clip-path-2)">
      <g transform="translate(-191.656 -3759.521)">
        <text id="INNOVATION" transform="translate(174.656 3759.521)" fill="#fff" font-size="27" font-family="Gotham-Black, Gotham" font-weight="800"><tspan x="49.403" y="22">INNOVATION</tspan></text>
      </g>
      <g transform="translate(211.344 -3759.521)">
        <text id="PEOPLE" transform="translate(174.656 3759.521)" fill="#fff" font-size="27" font-family="Gotham-Black, Gotham" font-weight="800"><tspan x="83.544" y="22">PEOPLE</tspan></text>
      </g>
      <g transform="translate(614.344 -3759.521)">
        <text id="EXPERIENCE" transform="translate(174.656 3759.521)" fill="#fff" font-size="27" font-family="Gotham-Black, Gotham" font-weight="800"><tspan x="49.632" y="22">EXPERIENCE</tspan></text>
      </g>
      <g transform="translate(1017.344 -3759.521)">
        <text id="DIVERSIFICATION" transform="translate(174.656 3759.521)" fill="#fff" font-size="27" font-family="Gotham-Black, Gotham" font-weight="800"><tspan x="14.667" y="22">DIVERSIFICATION</tspan></text>
      </g>
    </g>
  </g>
</svg>
