<svg id="listFirst" xmlns="http://www.w3.org/2000/svg" width="357" height="101" viewBox="0 0 357 101">
  <g id="Group_3023" data-name="Group 3023" transform="translate(-762.009 -10790)">
    <g id="Group_2985" data-name="Group 2985" transform="matrix(0.998, -0.07, 0.07, 0.998, 816.855, 10810.039)">
      <path id="Path_6387" data-name="Path 6387" d="M8.75.066,133.9,1c4.833.036,8.779,4.541,8.816,10.062l.225,34.313c.036,5.521-3.852,9.967-8.685,9.931L9.106,54.372C4.273,54.336.327,49.831.29,44.31L.066,10C.029,4.476,3.918.029,8.75.066Z" transform="translate(60.028 -0.053) rotate(9)" fill="#f16522"/>
      <path id="Path_6376" data-name="Path 6376" d="M4283.644,1128.841l15.469,23.533,19.808-23.533Z" transform="translate(-4207.162 -1072.839)" fill="#f16522"/>
    </g>
    <text id="IT_Solution" data-name="IT Solution" transform="matrix(0.996, 0.087, -0.087, 0.996, 800.434, 10819.923)" fill="#f4de3a" font-size="18" font-family="Gotham-Medium, Gotham" font-weight="500"><tspan x="96.782" y="14">IT Solution</tspan></text>
  </g>
  <rect id="Rectangle_844" data-name="Rectangle 844" width="357" height="101" fill="none"/>
</svg>
