<svg xmlns="http://www.w3.org/2000/svg" xmlns:xlink="http://www.w3.org/1999/xlink" width="94.772" height="432.518" viewBox="0 0 94.772 432.518">
  <defs>
    <clipPath id="clip-path">
      <path id="Path_6264" data-name="Path 6264" d="M4653.094,3578.75l-4.588,18.847-8.214,239.437h33.322L4665.4,3597.6l-4.588-18.847-3.86.622Z" transform="translate(-4640.292 -3578.75)" fill="none"/>
    </clipPath>
    <clipPath id="clip-path-2">
      <path id="Path_1773" data-name="Path 1773" d="M4582.457,2659.129c35.523,44.659,45.714,122.3,19.914,174.233h-39.829C4536.742,2781.43,4546.934,2703.788,4582.457,2659.129Z" transform="translate(-4548.137 -2659.129)" fill="#91345c" opacity="0.17" clip-rule="evenodd" style="isolation: isolate"/>
    </clipPath>
  </defs>
  <g id="Group_3039" data-name="Group 3039" transform="translate(-4479.175 -2659.129)">
    <g id="Group_2831" data-name="Group 2831" transform="translate(4479.175 2659.129)">
      <g id="Group_2818" data-name="Group 2818" transform="translate(0 144.346)">
        <g id="Group_2816" data-name="Group 2816">
          <path id="Path_6260" data-name="Path 6260" d="M4489.981,3471.912c2.28-17.431,16.138-22.114,16.138-22.114L4502.9,3421c-.583,1.354-2.08,2.672-2.989,3.806q-3.443,4.295-6.878,8.6c-2.6,3.274-5.188,6.561-7.715,9.893-1.994,2.63-4.267,5.222-5.433,8.358-1.318,3.547-.494,6.964.043,10.577.665,4.465,5.416,22.439,7.254,32.076Z" transform="translate(-4479.175 -3421)" fill="#f5bf5d" fill-rule="evenodd"/>
          <path id="Path_6261" data-name="Path 6261" d="M4514.148,3529c2.28-17.431,16.138-22.114,16.138-22.114s-.886-7.92-1.729-15.453c-4.2,3.5-14.808,12.876-17.976,20.569-3.735,9.072.211,35.845.708,39.085.02.1.04.205.059.305Z" transform="translate(-4503.342 -3478.092)" fill="#f7aa3e" fill-rule="evenodd"/>
        </g>
        <g id="Group_2817" data-name="Group 2817" transform="translate(67.827)">
          <path id="Path_6262" data-name="Path 6262" d="M4853.313,3471.912c-2.28-17.431-16.138-22.114-16.138-22.114l3.221-28.8c.583,1.354,2.08,2.672,2.989,3.806q3.442,4.295,6.878,8.6c2.6,3.274,5.188,6.561,7.715,9.893,1.995,2.63,4.267,5.222,5.432,8.358,1.318,3.547.495,6.964-.043,10.577-.665,4.465-5.416,22.439-7.254,32.076Z" transform="translate(-4837.175 -3421)" fill="#f5bf5d" fill-rule="evenodd"/>
          <path id="Path_6263" data-name="Path 6263" d="M4853.313,3529c-2.28-17.431-16.138-22.114-16.138-22.114s.886-7.92,1.729-15.453c4.2,3.5,14.808,12.876,17.976,20.569,3.735,9.072-.211,35.845-.708,39.085-.02.1-.04.205-.059.305Z" transform="translate(-4837.175 -3478.092)" fill="#f7aa3e" fill-rule="evenodd"/>
        </g>
      </g>
      <g id="Group_984" data-name="Group 984" transform="translate(30.526 174.233)">
        <g id="Group_2820" data-name="Group 2820">
          <g id="Group_2819" data-name="Group 2819" clip-path="url(#clip-path)">
            <g id="Group_983" data-name="Group 983" transform="translate(-21.726 6.4)">
              <g id="Group_982" data-name="Group 982" opacity="0.69">
                <path id="Path_1753" data-name="Path 1753" d="M4555.114,3612.531l-10.57,18.847-18.924,239.437H4602.4l-18.924-239.437-10.57-18.847-8.894.622Z" transform="translate(-4525.619 -3612.531)" fill="#fff" fill-rule="evenodd"/>
              </g>
            </g>
          </g>
        </g>
      </g>
      <g id="Group_985" data-name="Group 985" transform="translate(28.411 171.37)">
        <path id="Path_1755" data-name="Path 1755" d="M4633.674,3563.639h28.861l4.545,17.057H4629.13Z" transform="translate(-4629.13 -3563.639)" fill="#263c95" fill-rule="evenodd"/>
      </g>
      <rect id="Rectangle_616" data-name="Rectangle 616" width="39.829" height="6.4" transform="translate(27.471 174.233)" fill="#71cfd8"/>
      <g id="Group_2830" data-name="Group 2830" transform="translate(13.066)">
        <path id="Path_1773-2" data-name="Path 1773" d="M4582.457,2659.129c35.523,44.659,45.714,122.3,19.914,174.233h-39.829C4536.742,2781.43,4546.934,2703.788,4582.457,2659.129Z" transform="translate(-4548.137 -2659.129)" fill="#91345c" fill-rule="evenodd" opacity="0.17" style="isolation: isolate"/>
        <g id="Group_2829" data-name="Group 2829" clip-path="url(#clip-path-2)">
          <path id="Path_6265" data-name="Path 6265" d="M4609.62,2833.364h14.292V2659.131C4598.419,2703.791,4591.1,2781.432,4609.62,2833.364Z" transform="translate(-4589.592 -2659.131)" fill="#263c95" fill-rule="evenodd"/>
          <path id="Path_1773-3" data-name="Path 1773" d="M4582.457,2659.129c35.523,44.659,45.714,122.3,19.914,174.233h-39.829C4536.742,2781.43,4546.934,2703.788,4582.457,2659.129Z" transform="translate(-4548.137 -2659.129)" fill="#e5eef9" fill-rule="evenodd"/>
          <path id="Path_6266" data-name="Path 6266" d="M4609.62,2833.364h14.292V2659.131C4598.419,2703.791,4591.1,2781.432,4609.62,2833.364Z" transform="translate(-4589.592 -2659.131)" fill="#263c95" fill-rule="evenodd"/>
          <g id="Group_2821" data-name="Group 2821" transform="translate(0 0)">
            <path id="Path_6267" data-name="Path 6267" d="M4602.014,2724.628v-65.5c-14.177,17.823-24.319,40.9-29.749,65.5Z" transform="translate(-4567.694 -2659.131)" fill="#e5eef9" fill-rule="evenodd"/>
            <path id="Path_6268" data-name="Path 6268" d="M4549.184,3119.667c-3.2,30.577.85,61.8,13.359,86.979h19.915v-86.979Z" transform="translate(-4548.138 -3032.413)" fill="#e5eef9" fill-rule="evenodd"/>
          </g>
          <path id="Path_6269" data-name="Path 6269" d="M4729.282,2659.129v174.233H4749.2c25.8-51.932,15.609-129.574-19.914-174.233Z" transform="translate(-4694.962 -2659.129)" fill="#e5eef9" fill-rule="evenodd"/>
          <g id="Group_2822" data-name="Group 2822" transform="translate(0 0)">
            <path id="Path_6270" data-name="Path 6270" d="M4602.014,2724.628v-65.5c-14.177,17.823-24.319,40.9-29.749,65.5Z" transform="translate(-4567.694 -2659.131)" fill="#e5eef9" fill-rule="evenodd"/>
            <path id="Path_6271" data-name="Path 6271" d="M4549.184,3119.667c-3.2,30.577.85,61.8,13.359,86.979h19.915v-86.979Z" transform="translate(-4548.138 -3032.413)" fill="#e5eef9" fill-rule="evenodd"/>
          </g>
          <g id="Group_2823" data-name="Group 2823" transform="translate(34.32)">
            <path id="Path_6272" data-name="Path 6272" d="M4729.282,2659.131Z" transform="translate(-4729.282 -2659.13)" fill="#263c95" fill-rule="evenodd"/>
            <path id="Path_6273" data-name="Path 6273" d="M4729.284,2659.129h0c25.494,44.66,32.807,122.3,14.291,174.233h5.623C4775,2781.43,4764.808,2703.788,4729.284,2659.129Z" transform="translate(-4729.284 -2659.129)" fill="#263c95" fill-rule="evenodd"/>
          </g>
          <path id="Path_6274" data-name="Path 6274" d="M4582.457,2659.131c-35.523,44.66-45.715,122.3-19.915,174.233h19.915Z" transform="translate(-4548.137 -2659.131)" fill="#e5eef9" fill-rule="evenodd"/>
          <rect id="Rectangle_792" data-name="Rectangle 792" width="75.974" height="21.757" transform="translate(-3.247 87.254)" fill="#263c95"/>
          <rect id="Rectangle_793" data-name="Rectangle 793" width="75.974" height="21.757" transform="translate(-3.247 130.768)" fill="#e5eef9"/>
          <rect id="Rectangle_794" data-name="Rectangle 794" width="75.974" height="21.757" transform="translate(-3.247 109.011)" fill="#263c95"/>
          <rect id="Rectangle_795" data-name="Rectangle 795" width="75.974" height="21.757" transform="translate(-3.247 152.524)" fill="#263c95"/>
          <path id="Path_6275" data-name="Path 6275" d="M4638.628,2911.757V2890h-16.713c-1.767,7.045-3.242,14.331-4.411,21.757Z" transform="translate(-4604.361 -2846.259)" fill="#263c95" fill-rule="evenodd"/>
          <path id="Path_6276" data-name="Path 6276" d="M4729,2911.757h21.231c-1.168-7.426-2.644-14.712-4.411-21.757H4729Z" transform="translate(-4694.733 -2846.259)" fill="#263c95" fill-rule="evenodd"/>
          <path id="Path_6277" data-name="Path 6277" d="M4729.283,2659.129h0v174.233h14.292C4762.09,2781.43,4754.776,2703.789,4729.283,2659.129Z" transform="translate(-4694.962 -2659.129)" fill="#e5eef9" fill-rule="evenodd"/>
          <rect id="Rectangle_796" data-name="Rectangle 796" width="75.974" height="21.757" transform="translate(-3.247 87.254)" fill="#263c95"/>
          <path id="Path_6278" data-name="Path 6278" d="M4604.924,2702.87h47.123c-5.734-16.294-13.664-31.3-23.562-43.741C4618.588,2671.572,4610.658,2686.576,4604.924,2702.87Z" transform="translate(-4594.165 -2659.129)" fill="#212e60" fill-rule="evenodd"/>
          <path id="Path_6279" data-name="Path 6279" d="M4627.124,3026.59v-21.756h-21.349c-1.133,7.154-1.981,14.437-2.53,21.756Z" transform="translate(-4592.803 -2939.336)" fill="#e5eef9" fill-rule="evenodd"/>
          <path id="Path_6280" data-name="Path 6280" d="M4565.582,3004.833h-8.4a195.347,195.347,0,0,0-3.525,21.756h9.395C4563.6,3019.27,4564.449,3011.987,4565.582,3004.833Z" transform="translate(-4552.611 -2939.336)" fill="#263c95" fill-rule="evenodd"/>
          <path id="Path_6281" data-name="Path 6281" d="M4828.738,3004.833h-13.456v21.756h16.981A195.347,195.347,0,0,0,4828.738,3004.833Z" transform="translate(-4764.668 -2939.336)" fill="#e5eef9" fill-rule="evenodd"/>
          <path id="Path_6282" data-name="Path 6282" d="M4729.282,3026.59h23.88c-.549-7.32-1.4-14.6-2.53-21.756h-21.35Z" transform="translate(-4694.962 -2939.336)" fill="#263c95" fill-rule="evenodd"/>
          <path id="Path_6283" data-name="Path 6283" d="M4729.282,3141.423H4753.9c.053-7.229-.2-14.511-.742-21.756h-23.88Z" transform="translate(-4694.962 -3032.412)" fill="#e5eef9" fill-rule="evenodd"/>
          <path id="Path_6284" data-name="Path 6284" d="M4729.282,3256.257H4752.8c.69-7.136,1.056-14.419,1.108-21.757h-24.622Z" transform="translate(-4694.962 -3125.489)" fill="#263c95" fill-rule="evenodd"/>
          <path id="Path_6285" data-name="Path 6285" d="M4729.282,3464.167v21.709h14.292a161.586,161.586,0,0,0,5.985-21.709Z" transform="translate(-4694.962 -3311.643)" fill="#263c95" fill-rule="evenodd"/>
          <path id="Path_6286" data-name="Path 6286" d="M4582.5,3256.257V3234.5h-34.31a176.317,176.317,0,0,0,1.545,21.757Z" transform="translate(-4548.181 -3125.489)" fill="#e5eef9" fill-rule="evenodd"/>
          <path id="Path_6287" data-name="Path 6287" d="M4628.686,3371.09v-21.757h-23.514a207.765,207.765,0,0,0,3.237,21.757Z" transform="translate(-4594.366 -3218.565)" fill="#263c95" fill-rule="evenodd"/>
          <g id="Group_2824" data-name="Group 2824" transform="translate(-3.247 109.011)">
            <rect id="Rectangle_797" data-name="Rectangle 797" width="37.567" height="21.757" fill="#e5eef9"/>
            <path id="Path_6288" data-name="Path 6288" d="M4868.285,3234.5H4854.5c-.053,7.338-.418,14.621-1.109,21.757h14.894Z" transform="translate(-4792.31 -3234.5)" fill="#e5eef9" fill-rule="evenodd"/>
            <path id="Path_6289" data-name="Path 6289" d="M4729.282,3392.8h14.292a182.925,182.925,0,0,0,9.222-43.466h-23.514Z" transform="translate(-4691.715 -3327.576)" fill="#e5eef9" fill-rule="evenodd"/>
          </g>
          <path id="Path_6290" data-name="Path 6290" d="M4622.255,3464.167a161.514,161.514,0,0,0,5.986,21.709h14.292v-21.709Z" transform="translate(-4608.212 -3311.643)" fill="#e5eef9" fill-rule="evenodd"/>
          <path id="Path_6291" data-name="Path 6291" d="M4729.282,3464.167v21.709h14.292a161.586,161.586,0,0,0,5.985-21.709Z" transform="translate(-4694.962 -3311.643)" fill="#263c95" fill-rule="evenodd"/>
          <g id="Group_2825" data-name="Group 2825" transform="translate(54.598 130.768)">
            <path id="Path_6292" data-name="Path 6292" d="M4854.438,3349.333h-14.894a207.894,207.894,0,0,1-3.237,21.757h18.13Z" transform="translate(-4836.308 -3349.333)" fill="#263c95" fill-rule="evenodd"/>
          </g>
          <g id="Group_2826" data-name="Group 2826" transform="translate(-3.247 109.011)">
            <path id="Path_6293" data-name="Path 6293" d="M4531,3234.5v21.757h14.053c-.69-7.136-1.056-14.419-1.108-21.757Z" transform="translate(-4531 -3234.5)" fill="#263c95" fill-rule="evenodd"/>
          </g>
          <g id="Group_2827" data-name="Group 2827" transform="translate(-3.247 87.255)">
            <path id="Path_6294" data-name="Path 6294" d="M4544.688,3119.667H4531v21.756h12.944C4543.893,3134.194,4544.144,3126.912,4544.688,3119.667Z" transform="translate(-4531 -3119.667)" fill="#e5eef9" fill-rule="evenodd"/>
          </g>
          <g id="Group_2828" data-name="Group 2828" transform="translate(48.612 152.524)">
            <path id="Path_6295" data-name="Path 6295" d="M4828.831,3485.924v-21.757H4810.7a161.587,161.587,0,0,1-5.986,21.709" transform="translate(-4804.715 -3464.167)" fill="#e5eef9" fill-rule="evenodd"/>
          </g>
          <rect id="Rectangle_798" data-name="Rectangle 798" width="51.344" height="2.842" transform="translate(8.121 40.899)" fill="#f7aa3e"/>
        </g>
      </g>
    </g>
    <path id="Path_6296" data-name="Path 6296" d="M4729.284,2659.129h0c15.861,49.425,22.251,122.3,3.736,174.233H4749.2C4775,2781.43,4764.808,2703.788,4729.284,2659.129Z" transform="translate(-202.723)" fill="#484848" fill-rule="evenodd" opacity="0.2" style="mix-blend-mode: multiply;isolation: isolate"/>
  </g>
</svg>
