<svg xmlns="http://www.w3.org/2000/svg" xmlns:xlink="http://www.w3.org/1999/xlink" width="544.996" height="526.604" viewBox="0 0 544.996 526.604">
  <defs>
    <radialGradient id="radial-gradient" cx="-8.211" cy="-17.393" r="0.003" gradientTransform="translate(0.318) scale(0.364 1)" gradientUnits="objectBoundingBox">
      <stop offset="0.589" stop-color="#fff" stop-opacity="0"/>
      <stop offset="0.966" stop-color="#6e7797" stop-opacity="0.02"/>
      <stop offset="1" stop-color="#212e60" stop-opacity="0.031"/>
    </radialGradient>
    <linearGradient id="linear-gradient" x1="0.257" y1="0.11" x2="0.786" y2="0.959" gradientUnits="objectBoundingBox">
      <stop offset="0" stop-color="#f16421"/>
      <stop offset="0.276" stop-color="#f36a24"/>
      <stop offset="0.675" stop-color="#f87e2e"/>
      <stop offset="1" stop-color="#ff933a"/>
    </linearGradient>
    <radialGradient id="radial-gradient-2" cx="-4.26" cy="-8.856" r="0.002" gradientTransform="translate(0.344) scale(0.312 1)" xlink:href="#radial-gradient"/>
    <radialGradient id="radial-gradient-3" cx="-6.111" cy="-14.382" r="0.004" gradientTransform="translate(0.375) scale(0.25 1)" xlink:href="#radial-gradient"/>
    <radialGradient id="radial-gradient-4" cx="-4.832" cy="-12.945" r="0.004" gradientTransform="translate(0.383) scale(0.234 1)" xlink:href="#radial-gradient"/>
    <radialGradient id="radial-gradient-5" cx="-4.307" cy="-13.509" r="0.004" gradientTransform="translate(0.383) scale(0.234 1)" xlink:href="#radial-gradient"/>
    <radialGradient id="radial-gradient-6" cx="-6.893" cy="-19.354" r="0.007" gradientTransform="translate(0.396) scale(0.207 1)" xlink:href="#radial-gradient"/>
  </defs>
  <g id="Group_1019" data-name="Group 1019" transform="translate(-697 -9063.857)">
    <g id="Group_1018" data-name="Group 1018" transform="translate(959.956 9493.682) rotate(-135)">
      <g id="Group_1017" data-name="Group 1017" transform="translate(0 0)">
        <ellipse id="Ellipse_709" data-name="Ellipse 709" cx="98.185" cy="98.185" rx="98.185" ry="98.185" transform="matrix(0.228, -0.974, 0.974, 0.228, 0, 191.217)" fill="#f7cf26"/>
        <path id="Path_1811" data-name="Path 1811" d="M48.176,39.012C30.938,51.943,11.935,59.544,0,75.073A98.494,98.494,0,0,0,31.634,99.226C35.187,88.657,38.651,78,42.975,67.623,50.778,46.817,74.185,26.009,74.185,0,66.383,15.6,61.182,28.611,48.176,39.012Z" transform="translate(43.881 107.288)" fill="#ffd855"/>
        <path id="Path_1812" data-name="Path 1812" d="M60.182,4.361C51.511,39.981,30.632,69.5.017,94.146c0,.24-.017.478-.017.721a97.914,97.914,0,0,0,3.07,24.286C34.991,84.681,60.784,44.963,73.018,0A98.1,98.1,0,0,0,60.182,4.361Z" transform="translate(19.767 23.085)" fill="#ffd855"/>
        <path id="Path_1813" data-name="Path 1813" d="M25.5,0A98.226,98.226,0,0,0,0,36.772C11.719,31.486,19.493,15.593,25.5,0Z" transform="translate(26.587 45.259)" fill="#ffb200"/>
        <path id="Path_1814" data-name="Path 1814" d="M94.92,10.457A98.828,98.828,0,0,0,82.145,0C73.724,26.176,67.067,52.059,63.24,80.76a96.2,96.2,0,0,1-13,28.608C28.118,129.273,9.795,149.205,0,175.508a98.172,98.172,0,0,0,26.713,3.7c1.143,0,2.272-.049,3.4-.085,4.327-16.078,13.117-30.814,25.32-41.141C91.863,103.577,95.221,56.578,94.92,10.457Z" transform="translate(91.239 36.933)" fill="#ffd855"/>
        <path id="Path_1815" data-name="Path 1815" d="M40.913,34.78A98.054,98.054,0,0,0,20.386,0C31.875,41.624,14.78,81.039,0,120.451,16.687,93.149,28.946,64.075,40.913,34.78Z" transform="translate(170.084 51.858)" fill="#ffd855"/>
        <path id="Path_1816" data-name="Path 1816" d="M75.716,0a30.18,30.18,0,0,0-3.941,9.409C58.769,51.023,32.76,74.43,1.551,103.041A7.4,7.4,0,0,0,0,105.344a97.618,97.618,0,0,0,21.565-7.71c20-29.011,42.606-53.991,54.632-87.3,0-.221.014-.439.014-.663C76.211,6.4,76.032,3.182,75.716,0Z" transform="translate(139.925 108.283)" fill="#ffd855"/>
        <path id="Path_1817" data-name="Path 1817" d="M0,107.475C9.776,71.625,22.621,35.78,42.359,3.769Q38.7,1.73,34.853,0C8.074,26.142,0,70.836,0,107.475Z" transform="translate(123.269 28.424)" fill="#ffd855"/>
        <path id="Path_1818" data-name="Path 1818" d="M92.108,0c-2.8,0-5.562.146-8.3.374C61.881,28.984,70.268,70.69,45.4,100.524,32.144,113.787,16.379,123.706,0,132.18a98.232,98.232,0,0,0,6.446,13.906c21.694-7.181,43.885-14.379,51.964-32.557,16.267-38.638,29.361-88.4,65.376-108.278A98.018,98.018,0,0,0,92.108,0Z" transform="translate(25.844 19.767)" fill="#ffd855"/>
        <g id="Group_1016" data-name="Group 1016" transform="translate(63.616 31.609)" style="mix-blend-mode: soft-light;isolation: isolate">
          <g id="Group_1007" data-name="Group 1007" transform="translate(96.907 45.615)" opacity="0.527" style="mix-blend-mode: soft-light;isolation: isolate">
            <path id="Path_1824" data-name="Path 1824" d="M10.471,0c5.424.194,9.54,8.2,9.193,17.879S14.638,35.252,9.213,35.058-.327,26.857.02,17.176,5.047-.193,10.471,0Z" transform="translate(0 0)" fill="#fff" opacity="0.5" style="mix-blend-mode: soft-light;isolation: isolate"/>
          </g>
          <g id="Group_1008" data-name="Group 1008" transform="translate(44.906 73.839)" style="mix-blend-mode: soft-light;isolation: isolate">
            <path id="Path_1825" data-name="Path 1825" d="M.516,1.821A3.708,3.708,0,1,1,1.821,6.9,3.708,3.708,0,0,1,.516,1.821Z" transform="translate(0 0)" fill="#fff" opacity="0.5" style="mix-blend-mode: soft-light;isolation: isolate"/>
          </g>
          <g id="Group_1009" data-name="Group 1009" transform="translate(0 22.762)" style="mix-blend-mode: soft-light;isolation: isolate">
            <path id="Path_1826" data-name="Path 1826" d="M.517,1.821a3.709,3.709,0,1,1,1.3,5.08A3.707,3.707,0,0,1,.517,1.821Z" transform="translate(0 0)" fill="#fff"/>
          </g>
          <g id="Group_1015" data-name="Group 1015" transform="translate(73.432 0)" style="mix-blend-mode: soft-light;isolation: isolate">
            <path id="Path_1832" data-name="Path 1832" d="M.846,2.984A6.073,6.073,0,1,1,2.982,11.3,6.074,6.074,0,0,1,.846,2.984Z" transform="translate(0 0)" fill="#fff"/>
          </g>
        </g>
        <path id="Path_1833" data-name="Path 1833" d="M110.773,195.588a100.038,100.038,0,0,1-12.588.781A98.185,98.185,0,0,1,98.185,0a100.488,100.488,0,0,1,12.588.779,98.215,98.215,0,0,0,0,194.809Z" transform="translate(19.767 19.767)" fill="#d69f9f" opacity="0.5" style="mix-blend-mode: multiply;isolation: isolate"/>
      </g>
    </g>
    <g id="Path_1834" data-name="Path 1834" transform="translate(785.134 9152.041)" fill="none" opacity="0.35">
      <path d="M175.321,0A175.321,175.321,0,1,1,0,175.321,175.321,175.321,0,0,1,175.321,0Z" stroke="none"/>
      <path d="M 175.3211212158203 1 C 163.4929809570312 1 151.6726226806641 2.1915283203125 140.1882629394531 4.54156494140625 C 128.9963073730469 6.831817626953125 117.9875793457031 10.24911499023438 107.4677581787109 14.69857788085938 C 97.13876342773438 19.0673828125 87.17630004882812 24.474853515625 77.85720825195312 30.77072143554688 C 68.62640380859375 37.00692749023438 59.94613647460938 44.16885375976562 52.0574951171875 52.0574951171875 C 44.16885375976562 59.94613647460938 37.00692749023438 68.62640380859375 30.77072143554688 77.85720825195312 C 24.474853515625 87.17630004882812 19.0673828125 97.13876342773438 14.69857788085938 107.4677581787109 C 10.24911499023438 117.9875793457031 6.831817626953125 128.9963073730469 4.54156494140625 140.1882629394531 C 2.1915283203125 151.6726226806641 1 163.4929809570312 1 175.3211212158203 C 1 187.1492156982422 2.1915283203125 198.9696197509766 4.54156494140625 210.4539337158203 C 6.831817626953125 221.6458892822266 10.24911499023438 232.6546630859375 14.69857788085938 243.1744384765625 C 19.0673828125 253.5034790039062 24.474853515625 263.4658813476562 30.77072143554688 272.7849731445312 C 37.00692749023438 282.0158386230469 44.16885375976562 290.6961059570312 52.0574951171875 298.5847473144531 C 59.94613647460938 306.473388671875 68.62640380859375 313.6353149414062 77.85720825195312 319.8715209960938 C 87.17630004882812 326.1673889160156 97.13876342773438 331.5748596191406 107.4677581787109 335.9436340332031 C 117.9875793457031 340.3931274414062 128.9963073730469 343.8104248046875 140.1882629394531 346.1006774902344 C 151.6726226806641 348.4507141113281 163.4929809570312 349.6422424316406 175.3211212158203 349.6422424316406 C 187.1492156982422 349.6422424316406 198.9696197509766 348.4507141113281 210.4539337158203 346.1006774902344 C 221.6458892822266 343.8104248046875 232.6546630859375 340.3931274414062 243.1744384765625 335.9436340332031 C 253.5034790039062 331.5748596191406 263.4658813476562 326.1673889160156 272.7849731445312 319.8715209960938 C 282.0158386230469 313.6353149414062 290.6961059570312 306.473388671875 298.5847473144531 298.5847473144531 C 306.473388671875 290.6961059570312 313.6353149414062 282.0158386230469 319.8715209960938 272.7849731445312 C 326.1673889160156 263.4658813476562 331.5748596191406 253.5034790039062 335.9436340332031 243.1744384765625 C 340.3931274414062 232.6546630859375 343.8104248046875 221.6458892822266 346.1006774902344 210.4539337158203 C 348.4507141113281 198.9696197509766 349.6422424316406 187.1492156982422 349.6422424316406 175.3211212158203 C 349.6422424316406 163.4929809570312 348.4507141113281 151.6726226806641 346.1006774902344 140.1882629394531 C 343.8104248046875 128.9963073730469 340.3931274414062 117.9875793457031 335.9436340332031 107.4677581787109 C 331.5748596191406 97.13876342773438 326.1673889160156 87.17630004882812 319.8715209960938 77.85720825195312 C 313.6353149414062 68.62640380859375 306.473388671875 59.94613647460938 298.5847473144531 52.0574951171875 C 290.6961059570312 44.16885375976562 282.0158386230469 37.00692749023438 272.7849731445312 30.77072143554688 C 263.4658813476562 24.474853515625 253.5034790039062 19.0673828125 243.1744384765625 14.69857788085938 C 232.6546630859375 10.24911499023438 221.6458892822266 6.831817626953125 210.4539337158203 4.54156494140625 C 198.9696197509766 2.1915283203125 187.1492156982422 1 175.3211212158203 1 M 175.3211212158203 0 C 272.1482543945312 0 350.6422424316406 78.49392700195312 350.6422424316406 175.3211212158203 C 350.6422424316406 272.1482543945312 272.1482543945312 350.6422424316406 175.3211212158203 350.6422424316406 C 78.49392700195312 350.6422424316406 0 272.1482543945312 0 175.3211212158203 C 0 78.49392700195312 78.49392700195312 0 175.3211212158203 0 Z" stroke="none" fill="#1a3c9d"/>
    </g>
    <g id="Path_1835" data-name="Path 1835" transform="translate(697 9063.857)" fill="none" opacity="0.35">
      <path d="M263.3,0C408.719,0,526.6,117.884,526.6,263.3S408.719,526.6,263.3,526.6,0,408.719,0,263.3,117.884,0,263.3,0Z" stroke="none"/>
      <path d="M 263.3017578125 1 C 245.5043029785156 1 227.7182312011719 2.79296875 210.437744140625 6.3291015625 C 193.5969543457031 9.77520751953125 177.0317687988281 14.91729736328125 161.2024230957031 21.612548828125 C 145.66015625 28.18643188476562 130.6695556640625 36.32302856445312 116.6470947265625 45.79641723632812 C 102.7574768066406 55.18002319335938 89.69635009765625 65.95648193359375 77.826416015625 77.826416015625 C 65.95648193359375 89.69635009765625 55.18002319335938 102.7574768066406 45.79641723632812 116.6470947265625 C 36.32302856445312 130.6695556640625 28.18643188476562 145.66015625 21.612548828125 161.2024230957031 C 14.91729736328125 177.0317687988281 9.77520751953125 193.5969543457031 6.3291015625 210.437744140625 C 2.79296875 227.7182312011719 1 245.5043029785156 1 263.3017578125 C 1 281.0992431640625 2.79296875 298.8852844238281 6.3291015625 316.165771484375 C 9.77520751953125 333.0065612792969 14.91729736328125 349.57177734375 21.612548828125 365.4010925292969 C 28.18643188476562 380.943359375 36.32302856445312 395.9339599609375 45.79641723632812 409.9564208984375 C 55.18002319335938 423.8460083007812 65.95648193359375 436.9071655273438 77.826416015625 448.777099609375 C 89.69635009765625 460.6470336914062 102.7574768066406 471.4234924316406 116.6470947265625 480.8070983886719 C 130.6695556640625 490.2804870605469 145.66015625 498.4170837402344 161.2024230957031 504.990966796875 C 177.0317687988281 511.6862182617188 193.5969543457031 516.8283081054688 210.437744140625 520.2744140625 C 227.7182312011719 523.810546875 245.5043029785156 525.603515625 263.3017578125 525.603515625 C 281.0992431640625 525.603515625 298.8852844238281 523.810546875 316.165771484375 520.2744140625 C 333.0065612792969 516.8283081054688 349.57177734375 511.6862182617188 365.4010925292969 504.990966796875 C 380.943359375 498.4170837402344 395.9339599609375 490.2804870605469 409.9564208984375 480.8070983886719 C 423.8460083007812 471.4234924316406 436.9071655273438 460.6470336914062 448.777099609375 448.777099609375 C 460.6470336914062 436.9071655273438 471.4234924316406 423.8460083007812 480.8070983886719 409.9564208984375 C 490.2804870605469 395.9339599609375 498.4170837402344 380.943359375 504.990966796875 365.4010925292969 C 511.6862182617188 349.57177734375 516.8283081054688 333.0065612792969 520.2744140625 316.165771484375 C 523.810546875 298.8852844238281 525.603515625 281.0992431640625 525.603515625 263.3017578125 C 525.603515625 245.5043029785156 523.810546875 227.7182312011719 520.2744140625 210.437744140625 C 516.8283081054688 193.5969543457031 511.6862182617188 177.0317687988281 504.990966796875 161.2024230957031 C 498.4170837402344 145.66015625 490.2804870605469 130.6695556640625 480.8070983886719 116.6470947265625 C 471.4234924316406 102.7574768066406 460.6470336914062 89.69635009765625 448.777099609375 77.826416015625 C 436.9071655273438 65.95648193359375 423.8460083007812 55.18002319335938 409.9564208984375 45.79641723632812 C 395.9339599609375 36.32302856445312 380.943359375 28.18643188476562 365.4010925292969 21.612548828125 C 349.57177734375 14.91729736328125 333.0065612792969 9.77520751953125 316.165771484375 6.3291015625 C 298.8852844238281 2.79296875 281.0992431640625 1 263.3017578125 1 M 263.3017578125 0 C 408.7192993164062 0 526.603515625 117.8842163085938 526.603515625 263.3017578125 C 526.603515625 408.7192993164062 408.7192993164062 526.603515625 263.3017578125 526.603515625 C 117.8842163085938 526.603515625 0 408.7192993164062 0 263.3017578125 C 0 117.8842163085938 117.8842163085938 0 263.3017578125 0 Z" stroke="none" fill="#1a3c9d"/>
    </g>
    <g id="Group_1000" data-name="Group 1000" transform="translate(1204.774 9308.89)">
      <g id="Group_562" data-name="Group 562" transform="translate(0 0)">
        <circle id="Ellipse_643" data-name="Ellipse 643" cx="13.16" cy="13.16" r="13.16" transform="translate(0 18.611) rotate(-45)" fill="#0083ca"/>
        <g id="Group_561" data-name="Group 561" transform="translate(5.468 7.839)">
          <path id="Path_1354" data-name="Path 1354" d="M781.748,192.146a.229.229,0,0,1-.2.1,1.715,1.715,0,0,0-.3.041.2.2,0,0,1-.189-.038.358.358,0,0,0-.35-.032.083.083,0,0,0-.065.091c0,.033.005.069-.03.09a.324.324,0,0,0-.1.116.2.2,0,0,1-.178.094c-.048,0-.1,0-.145,0a.322.322,0,0,0-.2.054.72.72,0,0,1-.5.086.432.432,0,0,0-.284.024,1.137,1.137,0,0,1-.325.11.255.255,0,0,1-.239-.048.19.19,0,0,0-.253.011l-.087.069c-.018.014-.04.03-.061.02-.1-.044-.206-.033-.3-.078a2.715,2.715,0,0,0-.554-.158,1.726,1.726,0,0,1-.262-.088,1.04,1.04,0,0,0-.276-.109,2.571,2.571,0,0,0-.394-.027h-.283c-.033,0-.073-.005-.1.019-.084.089-.2.072-.3.092-.029.006-.059,0-.085.02a2.684,2.684,0,0,0-.431.379.366.366,0,0,1-.049.046,1.407,1.407,0,0,0-.257.261.4.4,0,0,1-.1.1,1.026,1.026,0,0,1-.262.145c-.083.027-.138.1-.219.129-.181.067-.175.062-.164.283a.751.751,0,0,0,.039.15c.009.032.02.064.026.1a.176.176,0,0,0,.17.157.3.3,0,0,0,.209-.061c.026-.02.051-.043.078-.063a.081.081,0,0,1,.11,0,1.393,1.393,0,0,1,.241.274c.034.042.02.083-.026.112a1,1,0,0,0-.092.062.063.063,0,0,0-.015.072.05.05,0,0,0,.058.041.773.773,0,0,0,.3-.078.232.232,0,0,1,.143-.053c.056,0,.08-.032.093-.078a.754.754,0,0,0,.044-.217.1.1,0,0,1,.074-.109.23.23,0,0,0,.069-.036c.114-.082.12-.162.02-.256l-.042-.037a.165.165,0,0,1,.029-.294l.1-.054a.445.445,0,0,0,.216-.215.172.172,0,0,1,.157-.109c.048,0,.1,0,.145,0a.05.05,0,0,1,.047.024c.014.028-.011.04-.027.053a1.226,1.226,0,0,1-.226.178.2.2,0,0,0-.131.222.352.352,0,0,0,.256.337l.021.006a.147.147,0,0,1,.1.146c-.007.081-.038.128-.119.138a.186.186,0,0,0-.174.172c0,.025-.009.051-.015.076-.033.145-.116.219-.246.2a.578.578,0,0,0-.11.01,1.983,1.983,0,0,0-.362.107c-.033.009-.062.024-.089-.013a.172.172,0,0,0-.255-.041.111.111,0,0,1-.115.007c-.1-.049-.125-.089-.091-.194a.478.478,0,0,0,.013-.208.067.067,0,0,0-.074-.067.259.259,0,0,0-.187.155.575.575,0,0,0-.022.261.105.105,0,0,1-.071.123c-.055.023-.107.053-.162.073a.408.408,0,0,0-.211.157.715.715,0,0,1-.26.2c-.046.028-.088.05-.108.1-.031.085-.127.081-.187.127-.034.026-.07,0-.105-.011-.051-.017-.111-.024-.14.03a.193.193,0,0,1-.2.1.436.436,0,0,0-.153.024c-.022.008-.042.018-.043.044s.062.125.105.128c.15.009.225.117.3.222a.219.219,0,0,1,.031.221.489.489,0,0,0-.028.119c-.013.1-.033.112-.129.111a.547.547,0,0,1-.078,0c-.2-.031-.4-.026-.6-.042a.093.093,0,0,0-.064.013c-.073.052-.178.08-.132.213.017.049-.026.109-.01.164a.3.3,0,0,1-.019.184,1.406,1.406,0,0,1-.074.149c-.012.026-.037.059-.013.083.063.061.05.136.051.209,0,.057.03.08.083.08a.345.345,0,0,0,.056,0,.284.284,0,0,1,.245.075.193.193,0,0,0,.207.041.305.305,0,0,1,.172-.031.428.428,0,0,0,.346-.168c.045-.043.066-.12.111-.174a.06.06,0,0,0,0-.053c-.027-.05,0-.084.028-.12a1.336,1.336,0,0,0,.085-.117.156.156,0,0,1,.121-.084.4.4,0,0,0,.192-.126c.041-.036.024-.091.027-.138a.132.132,0,0,1,.157-.131,1.429,1.429,0,0,1,.163.034c.036.007.077.032.108.011.073-.05.157-.08.23-.127.09-.058.1-.064.18,0a.23.23,0,0,1,.067.088.446.446,0,0,0,.123.156,1.272,1.272,0,0,0,.358.239.658.658,0,0,1,.233.2.123.123,0,0,1-.076.195.927.927,0,0,1-.276.019c-.031,0-.063.005-.074.038s.016.055.042.07c.08.046.167.08.247.128a.062.062,0,0,0,.1-.059.116.116,0,0,1,.1-.127c.079-.023.094-.1.126-.158a.122.122,0,0,0-.011-.124c-.024-.047,0-.077.057-.075.037,0,.059.03.089.043s.064,0,.066-.044a.114.114,0,0,0-.064-.1c-.079-.055-.162-.1-.241-.16a.377.377,0,0,0-.116-.059.274.274,0,0,1-.188-.142.343.343,0,0,0-.114-.146.183.183,0,0,1-.045-.049.13.13,0,0,1,.012-.145.09.09,0,0,1,.122-.015.779.779,0,0,1,.206.183.244.244,0,0,0,.161.111.2.2,0,0,1,.113.065.276.276,0,0,0,.079.06.328.328,0,0,1,.18.309c0,.033-.007.069.017.1a2.887,2.887,0,0,0,.219.32.151.151,0,0,1,.05.109c0,.111.078.132.159.151.066.015.085,0,.109-.06a.516.516,0,0,0,.035-.425.066.066,0,0,1,0-.022c-.007-.065.056-.168.108-.175a.177.177,0,0,1,.2.145,1,1,0,0,1,0,.133.411.411,0,0,0,.075.252.215.215,0,0,0,.189.116.444.444,0,0,1,.2.058c.053.025.1.035.142-.007a.1.1,0,0,1,.1-.016.857.857,0,0,1,.156.055.2.2,0,0,0,.22-.01.241.241,0,0,1,.08-.037.13.13,0,0,1,.164.095.543.543,0,0,1-.006.254,1.41,1.41,0,0,0-.073.232.818.818,0,0,1-.059.19.3.3,0,0,0-.017.226,2.563,2.563,0,0,0,.111.277,1.783,1.783,0,0,0,.251.43.635.635,0,0,1,.109.193.182.182,0,0,0,.072.1.521.521,0,0,1,.151.189.786.786,0,0,1,.065.235.329.329,0,0,0,.166.249.212.212,0,0,1,.074.066,1.911,1.911,0,0,1,.246.454c.061.176.156.334.219.508a.253.253,0,0,0,.138.138c.059.027.1-.013.142-.039a.2.2,0,0,1,.032-.01,3.878,3.878,0,0,0,.589-.253.408.408,0,0,1,.117-.033.269.269,0,0,0,.2-.133A.255.255,0,0,1,780.9,201a3.107,3.107,0,0,0,.366-.2c.132-.091.27-.169.3-.345a.29.29,0,0,1,.051-.1.948.948,0,0,0,.138-.265.1.1,0,0,0-.01-.1c-.042-.052-.082-.105-.125-.157a.135.135,0,0,0-.124-.061.128.128,0,0,1-.136-.075c-.016-.025-.036-.047-.053-.072-.092-.137-.191-.143-.287-.015a.209.209,0,0,1-.112.086.727.727,0,0,1-.266,0,.047.047,0,0,1-.045-.062c.044-.179-.056-.277-.2-.352a.627.627,0,0,1-.307-.349.119.119,0,0,1,.136-.157c.132.018.182.116.22.223.018.05.027.109.076.13a2.668,2.668,0,0,0,.382.2.308.308,0,0,0,.213.005c.027-.012.055-.02.082-.034.056-.03.074-.023.1.035a.269.269,0,0,1,.021.052.152.152,0,0,0,.135.114c.095.015.188.04.283.057a1.466,1.466,0,0,0,.6.008.835.835,0,0,1,.21-.023.164.164,0,0,1,.133.066,1,1,0,0,0,.22.217.282.282,0,0,1,.125.165.2.2,0,0,0,.1.128.374.374,0,0,1,.113.106.123.123,0,0,0,.163.051.253.253,0,0,1,.043-.013.11.11,0,0,1,.145.094c0,.072.038.137.041.206a2,2,0,0,0,.172.573.407.407,0,0,0,.065.129.552.552,0,0,1,.091.177c.021.06.039.12.064.178.08.183.181.357.243.547a.23.23,0,0,0,.054.084c.065.07.112.073.18.008.021-.02.04-.044.062-.063a.42.42,0,0,0,.2-.387.217.217,0,0,1,.008-.043,1.248,1.248,0,0,0,.016-.516.137.137,0,0,1,.047-.142c.086-.076.159-.166.242-.241s.16-.192.244-.284a.619.619,0,0,1,.146-.132c.079-.046.162-.1.159-.209a.082.082,0,0,1,.04-.063.294.294,0,0,1,.183-.072.887.887,0,0,0,.183-.03,13.126,13.126,0,0,0-4.127-7.986c-.017,0-.033.006-.051.007A.123.123,0,0,0,781.748,192.146Z" transform="translate(-759.84 -190.989)" fill="#a1cd3c"/>
          <path id="Path_1355" data-name="Path 1355" d="M769.576,248.143a.962.962,0,0,1-.288.075c-.157.041-.307.105-.468.132a.211.211,0,0,1-.258-.166.318.318,0,0,0-.1-.211,2.113,2.113,0,0,1-.161-.183.269.269,0,0,0-.143-.112.3.3,0,0,1-.22-.286.385.385,0,0,0-.106-.24.659.659,0,0,1-.19-.4.52.52,0,0,0-.127-.3.985.985,0,0,1-.211-.336c-.017-.049-.046-.094-.063-.142-.046-.132-.165-.231-.148-.395a1.13,1.13,0,0,0-.065-.29.427.427,0,0,0-.258-.287.237.237,0,0,0-.27.038.138.138,0,0,1-.164.015.545.545,0,0,0-.138-.04,1.981,1.981,0,0,1-.428-.116.819.819,0,0,1-.186-.089.251.251,0,0,0-.214-.034.565.565,0,0,1-.086.022c-.072,0-.1.064-.145.111s-.015.081,0,.125c.023.07-.013.114-.087.12a.148.148,0,0,1-.111-.043.374.374,0,0,0-.244-.094.132.132,0,0,1-.142-.1.2.2,0,0,0-.194-.14.464.464,0,0,0-.122,0,.4.4,0,0,1-.262-.078.157.157,0,0,1-.056-.225.194.194,0,0,0,.027-.106.68.68,0,0,1,.006-.177.1.1,0,0,0-.083-.125.29.29,0,0,0-.176.008.3.3,0,0,1-.139.02c-.106,0-.216-.029-.314.04a.07.07,0,0,1-.074,0,.31.31,0,0,0-.2-.009,1.575,1.575,0,0,1-.373.054.2.2,0,0,0-.164.082.173.173,0,0,1-.07.051,1.464,1.464,0,0,1-.41.086.24.24,0,0,1-.2-.045.108.108,0,0,0-.16.044.631.631,0,0,0-.068.114.27.27,0,0,1-.142.146.635.635,0,0,0-.322.388.747.747,0,0,1-.145.285c-.077.093-.143.2-.273.232a.14.14,0,0,0-.093.088c-.024.054-.05.123-.1.146a.282.282,0,0,0-.141.212.338.338,0,0,1-.036.081c-.07.125-.158.238-.221.37a.469.469,0,0,0-.034.4.624.624,0,0,1,.047.45.411.411,0,0,0-.013.076.24.24,0,0,1-.076.143.3.3,0,0,0-.094.229.811.811,0,0,0,.164.452c.028.042.079.053.115.085.065.057.1.134.168.192a.293.293,0,0,1,.09.137.839.839,0,0,0,.378.489,2.311,2.311,0,0,1,.3.223.251.251,0,0,0,.316.041.453.453,0,0,1,.093-.036.588.588,0,0,1,.367-.03.361.361,0,0,0,.27.019c.118-.052.241-.1.357-.152a.791.791,0,0,1,.352-.076.259.259,0,0,1,.276.2c.044.128.076.147.214.125a.43.43,0,0,1,.29.044c.116.065.135.107.112.243a.94.94,0,0,0-.047.205.608.608,0,0,1-.05.271.128.128,0,0,0-.011.108.728.728,0,0,0,.084.169c.078.094.15.193.229.287a.491.491,0,0,1,.127.265.445.445,0,0,0,.072.185.35.35,0,0,1,.062.211.827.827,0,0,0,.078.378.317.317,0,0,1-.068.387.29.29,0,0,0-.087.175c-.017.11-.06.214-.087.321a1.76,1.76,0,0,0-.033.319.164.164,0,0,0,.04.1,1.2,1.2,0,0,1,.114.228.951.951,0,0,0,.159.3.322.322,0,0,1,.082.266.513.513,0,0,0,.009.21.783.783,0,0,1,.037.219.471.471,0,0,0,.109.321.853.853,0,0,1,.249.479.037.037,0,0,0,0,.01.4.4,0,0,1,.039.241c-.027.076.039.161.053.255a.054.054,0,0,0,.021.037.4.4,0,0,0,.237.08,1.758,1.758,0,0,0,.424-.074.133.133,0,0,1,.054-.009,1.19,1.19,0,0,0,.411-.078.7.7,0,0,0,.333-.227.732.732,0,0,1,.107-.113.56.56,0,0,0,.155-.2.6.6,0,0,1,.152-.2.46.46,0,0,0,.146-.23.652.652,0,0,0,.035-.117.384.384,0,0,1,.229-.305.223.223,0,0,0,.115-.117.634.634,0,0,0,.034-.454.507.507,0,0,1-.023-.086.3.3,0,0,1,.127-.321.519.519,0,0,0,.115-.119.292.292,0,0,1,.129-.1.83.83,0,0,0,.332-.238.452.452,0,0,0,.118-.357,1.021,1.021,0,0,1,.009-.31.41.41,0,0,0-.057-.34.4.4,0,0,1-.092-.246,1.652,1.652,0,0,0-.048-.44.2.2,0,0,1,.031-.17.477.477,0,0,0,.056-.108.851.851,0,0,1,.254-.384.307.307,0,0,0,.057-.068c.069-.092.132-.189.205-.277a.731.731,0,0,1,.225-.213,1.091,1.091,0,0,0,.482-.507c.125-.235.228-.482.339-.725a.728.728,0,0,0,.018-.075c.033-.1-.008-.207.017-.309C769.674,248.172,769.612,248.121,769.576,248.143Z" transform="translate(-748.835 -237.461)" fill="#a1cd3c"/>
          <path id="Path_1356" data-name="Path 1356" d="M658.025,198.985a.219.219,0,0,1,.21-.02,2.166,2.166,0,0,0,.4.063c.036.005.051-.018.069-.044a.221.221,0,0,1,.128-.1c.069-.015.137-.034.206-.045a.14.14,0,0,1,.163.065.1.1,0,0,0,.118.055c.128-.017.2.053.178.18a.4.4,0,0,0,.006.143.919.919,0,0,0,.135.327c.05.072.083.082.147.023a.333.333,0,0,0,.109-.236,1.164,1.164,0,0,0-.055-.339.486.486,0,0,1,.19-.54,2.9,2.9,0,0,1,.468-.295.5.5,0,0,0,.247-.186.747.747,0,0,0,.1-.194.665.665,0,0,1,.151-.281c.084-.1.171-.195.258-.29a.55.55,0,0,1,.347-.2.752.752,0,0,0,.188-.066.086.086,0,0,0,.061-.095.165.165,0,0,1,.07-.143,1.688,1.688,0,0,1,.218-.124.415.415,0,0,1,.264-.05.1.1,0,0,1,.1.07c.026.066.077.074.131.028.034-.029.063-.063.1-.094s.049-.052.085-.048c.11.011.207-.057.316-.053a.222.222,0,0,0,.076-.016.07.07,0,0,0,.028-.122.113.113,0,0,0-.069-.032c-.04-.005-.08-.014-.12-.022a.154.154,0,0,1-.134-.21.249.249,0,0,1,.076-.134.175.175,0,0,0,.065-.188c-.013-.051.015-.069.051-.084a.488.488,0,0,1,.263-.028.666.666,0,0,0,.317-.015c.058-.019.1.037.074.094a.326.326,0,0,1-.088.114.331.331,0,0,0-.088.152c-.016.045-.011.069.041.079a.5.5,0,0,0,.209.008.26.26,0,0,1,.215.026.566.566,0,0,0,.21.067.12.12,0,0,0,.138-.17.216.216,0,0,1,0-.183c.046-.094.045-.1-.05-.133s-.1-.069-.091-.152c.006-.113.068-.21.083-.321a.139.139,0,0,0-.052-.155c-.025-.017-.049-.035-.046-.07.005-.063-.039-.086-.087-.1-.125-.031-.157-.124-.162-.235,0-.067,0-.134,0-.2a.488.488,0,0,0-.11-.308c-.057-.068-.075-.072-.146-.018a2.95,2.95,0,0,1-.276.187.154.154,0,0,1-.186-.011c-.047-.041-.052-.084-.019-.162.007-.017.017-.033.024-.05.03-.068.027-.1-.033-.13a.555.555,0,0,1-.133-.115.26.26,0,0,0-.144-.1,2.941,2.941,0,0,0-.355-.027.16.16,0,0,0-.113.04,1.217,1.217,0,0,0-.158.256c.015.132-.061.2-.173.237a.186.186,0,0,0-.031.012c-.057.033-.063.061-.023.115.066.088.067.114.009.207a.481.481,0,0,1-.159.152c-.1.063-.214.084-.316.136-.048.024-.083.051-.079.107.006.092-.058.167-.057.259,0,.035-.037.063-.071.081s-.059.031-.089.045c-.075.036-.116.024-.149-.052a.179.179,0,0,1,.007-.18,1.655,1.655,0,0,1,.13-.22c.027-.03.014-.057-.02-.069a.565.565,0,0,0-.185-.034.5.5,0,0,1-.338-.15.6.6,0,0,0-.275-.153.115.115,0,0,1-.1-.1.283.283,0,0,0-.033-.128c-.043-.058-.016-.1.021-.149a.951.951,0,0,1,.164-.133,1.042,1.042,0,0,1,.51-.232.435.435,0,0,0,.241-.128.253.253,0,0,1,.16-.067.341.341,0,0,1,.268.084.085.085,0,0,0,.111.011l.168-.087a.1.1,0,0,1,.115,0,.188.188,0,0,0,.115.037.075.075,0,0,0,.072-.043.054.054,0,0,0-.022-.069.207.207,0,0,1-.072-.121c-.024-.088-.008-.119.083-.124a.3.3,0,0,0,.163-.063c.082-.061.181-.1.226-.2.011-.025.041-.042.062-.063a.366.366,0,0,0,.076-.095.145.145,0,0,1,.166-.082.949.949,0,0,0,.166.006.233.233,0,0,1,.206.088.3.3,0,0,0,.114.1c.072.037.076.083.015.14a.638.638,0,0,1-.155.107c-.033.016-.072.03-.083.07-.019.069-.074.076-.13.083a.433.433,0,0,1-.186-.025.186.186,0,0,0-.231.116c-.014.04,0,.066.042.07a1.11,1.11,0,0,0,.365.011.092.092,0,0,1,.105.042.294.294,0,0,1,.045.089.2.2,0,0,0,.137.133c.073.027.146.054.219.083a.172.172,0,0,0,.185-.025,2.525,2.525,0,0,1,.2-.154.175.175,0,0,0,.06-.252c-.017-.033-.034-.066-.049-.1s-.016-.052.012-.069a.061.061,0,0,1,.072.012c.043.031.065.081.1.117a.116.116,0,0,0,.177.011c.05-.039.1-.078.148-.118a.124.124,0,0,0,.047-.174.179.179,0,0,0-.089-.108.247.247,0,0,1-.163-.262.157.157,0,0,0-.069-.143.535.535,0,0,0-.251-.113.259.259,0,0,1-.21-.177.146.146,0,0,0-.12-.1,1.284,1.284,0,0,0-.454-.017,2.854,2.854,0,0,1-.31.02c-.07,0-.142-.005-.211,0a.38.38,0,0,0-.2.053c-.071.053-.142.107-.21.165-.087.073-.095.106-.057.214.009.025.024.048.01.074a.158.158,0,0,1-.131.091c-.056,0-.114,0-.147-.055a.567.567,0,0,1-.072-.209c-.008-.068-.059-.111-.11-.1a.766.766,0,0,0-.257.1c-.082.06-.168.12-.127.252.023.076,0,.089-.069.131a.181.181,0,0,1-.15.006.419.419,0,0,0-.241,0,.467.467,0,0,1-.172.03h-.01a13.122,13.122,0,0,0-3.172,6.229.889.889,0,0,1,.185-.117A1.208,1.208,0,0,0,658.025,198.985Z" transform="translate(-657.364 -191.084)" fill="#a1cd3c"/>
          <path id="Path_1357" data-name="Path 1357" d="M655.387,269.128a.141.141,0,0,1,.137.022.335.335,0,0,1,.091.081.971.971,0,0,0,.691.374.217.217,0,0,1,.153.1.565.565,0,0,1,.09.212.278.278,0,0,0,.191.249.269.269,0,0,1,.166.14.161.161,0,0,0,.142.094.241.241,0,0,1,.183.09c.032.041.081.031.124.02s.045-.046.043-.081a.121.121,0,0,1,.022-.084.088.088,0,0,0,.007-.1c-.025-.034-.07-.026-.1-.017a.236.236,0,0,1-.234-.064c-.022-.02-.044-.04-.067-.058a.236.236,0,0,1-.08-.281,2.759,2.759,0,0,1,.111-.418.268.268,0,0,0,.006-.143.074.074,0,0,0-.036-.053.449.449,0,0,0-.374-.1.826.826,0,0,1-.155,0,.079.079,0,0,1-.081-.063.237.237,0,0,1,.031-.221,1.112,1.112,0,0,0,.121-.237c.039-.1.025-.211.109-.3.037-.037,0-.088-.061-.1a.75.75,0,0,0-.421.061.1.1,0,0,0-.069.092.7.7,0,0,1-.071.221.155.155,0,0,1-.183.109.886.886,0,0,0-.232.006.342.342,0,0,1-.325-.168c-.021.214-.037.429-.048.646l.019,0C655.316,269.147,655.353,269.141,655.387,269.128Z" transform="translate(-655.261 -259.05)" fill="#a1cd3c"/>
          <path id="Path_1358" data-name="Path 1358" d="M677.217,293.3c.045,0,.085-.006.093-.057s-.033-.071-.067-.092a.088.088,0,0,0-.043-.008.324.324,0,0,1-.159-.047.493.493,0,0,1-.255-.22.411.411,0,0,0-.116-.157c-.134-.12-.111-.162-.058-.268a.085.085,0,0,0,.015-.041c-.01-.083.046-.127.1-.179a.14.14,0,0,0-.048-.248.185.185,0,0,1-.079-.268.218.218,0,0,0,.044-.2.1.1,0,0,1,.032-.1.3.3,0,0,0,.077-.169.389.389,0,0,1,.073-.172.389.389,0,0,0,.074-.172.208.208,0,0,1,.139-.161c.027-.012.057-.017.084-.028.13-.048.244-.111.25-.273a.15.15,0,0,1,.013-.042.607.607,0,0,1,.2-.315.426.426,0,0,0,.137-.159c.045-.094.085-.189.124-.286a.467.467,0,0,1,.144-.244c.088-.06.066-.18.139-.247.016-.015.031-.032.048-.046a.158.158,0,0,0,.059-.127.592.592,0,0,0-.016-.176.323.323,0,0,1,.179-.453.5.5,0,0,1,.112-.048.34.34,0,0,0,.1-.043.478.478,0,0,1,.269-.089c.087,0,.19,0,.227-.117,0-.012.021-.021.034-.028a.108.108,0,0,0,.055-.113.242.242,0,0,1,.051-.165.352.352,0,0,0,.081-.215.311.311,0,0,1,.05-.221.145.145,0,0,0,.014-.087.431.431,0,0,1,.006-.111.382.382,0,0,0-.009-.228.39.39,0,0,1,.049-.371,5.056,5.056,0,0,1,.339-.478.124.124,0,0,0,.021-.026.753.753,0,0,0,.089-.649.214.214,0,0,0-.185-.167.387.387,0,0,1-.254-.146.577.577,0,0,0-.087-.086.364.364,0,0,0-.313-.11.653.653,0,0,1-.44-.13,6.524,6.524,0,0,0-.679-.3.288.288,0,0,1-.182-.2.228.228,0,0,0-.034-.1.507.507,0,0,1-.11-.252.244.244,0,0,0-.089-.174.7.7,0,0,1-.155-.142.124.124,0,0,0-.063-.045,1.129,1.129,0,0,0-.368-.072.386.386,0,0,1-.381-.219.351.351,0,0,0-.2-.18.175.175,0,0,1-.113-.128c-.014-.042.016-.078.024-.118s.026-.092-.029-.116a.227.227,0,0,0-.16-.032.66.66,0,0,1-.2.019.194.194,0,0,0-.134.041.172.172,0,0,1-.208.015.413.413,0,0,0-.179-.052.353.353,0,0,1-.183-.075,1.54,1.54,0,0,0-.252-.136.706.706,0,0,0-.216-.043.084.084,0,0,0-.081.026.485.485,0,0,1-.273.134.306.306,0,0,0-.269.229.242.242,0,0,1-.272.154.431.431,0,0,0-.122,0c-.019,0-.039.009-.041.031,0,.045-.03.1.03.128a.052.052,0,0,1,.031.053.19.19,0,0,0,.042.113.514.514,0,0,1,.07.353.656.656,0,0,1-.084.307,1.135,1.135,0,0,1-.133.133c-.05.055-.075.132-.135.175a.5.5,0,0,0-.175.324.328.328,0,0,0,.018.24.209.209,0,0,1-.037.281.154.154,0,0,0-.049.12.424.424,0,0,0,.164.349.5.5,0,0,1,.19.3.376.376,0,0,0,.093.174,1.254,1.254,0,0,1,.224.331c.051.1.11.2.153.306a1.034,1.034,0,0,0,.254.3c.007.007.02.008.031.012.079.033.159.063.236.1a1.231,1.231,0,0,1,.375.292.247.247,0,0,1,.044.1,2.11,2.11,0,0,1,.057.54c.013.259.021.518.048.776a.422.422,0,0,1,0,.133,1.075,1.075,0,0,0,0,.342c.014.138.071.263.094.4a1.07,1.07,0,0,1,0,.419,3.075,3.075,0,0,0-.041.341.13.13,0,0,0,.01.076,1.468,1.468,0,0,1,.128.447.606.606,0,0,0,.131.3.9.9,0,0,1,.2.521.335.335,0,0,0,.051.157.418.418,0,0,1,.061.177.647.647,0,0,0,.109.322.631.631,0,0,1,.029.059v0c.211.183.427.361.65.53a.225.225,0,0,1,.187.139c.05.036.1.071.151.107a.322.322,0,0,1,.115.016A.66.66,0,0,0,677.217,293.3Z" transform="translate(-671.318 -271.76)" fill="#a1cd3c"/>
          <path id="Path_1359" data-name="Path 1359" d="M729.349,183.366c.169-.035.226-.127.186-.3-.025-.1,0-.137.094-.174a.593.593,0,0,0,.384-.356.172.172,0,0,1,.037-.079.2.2,0,0,0,.06-.172.109.109,0,0,1,.063-.12,1.99,1.99,0,0,1,.359-.145.928.928,0,0,0,.3-.081c.02-.011.039-.023.034-.05s-.024-.027-.041-.032a.607.607,0,0,0-.21-.013,1.1,1.1,0,0,1-.4-.038,3.446,3.446,0,0,0-.431-.1,1.956,1.956,0,0,0-.719-.006.976.976,0,0,1-.285.022,1.584,1.584,0,0,0-.411.008,4.818,4.818,0,0,1-.706.077.932.932,0,0,1-.188.015,5.745,5.745,0,0,0-.707.04.1.1,0,0,0-.043.01.833.833,0,0,1-.236.059c-.137.014-.262.081-.4.087-.034,0-.08.006-.1.046s-.066.057-.106.071a1.757,1.757,0,0,1-.373.052,2,2,0,0,0-.218.04.077.077,0,0,0-.065.088.239.239,0,0,0,.149.2.4.4,0,0,0,.23.023,1.232,1.232,0,0,1,.474.024.254.254,0,0,1,.217.245.308.308,0,0,1-.041.182.171.171,0,0,0,0,.19,1.284,1.284,0,0,0,.1.172c.059.07.04.108-.053.124a.327.327,0,0,0-.3.355c-.013.084.031.168.022.259a.524.524,0,0,0,.049.27c.024.054.054.105.082.158.04.075.052.083.141.063a.2.2,0,0,1,.2.064c.129.138.2.089.279.006a.951.951,0,0,0,.206-.246.16.16,0,0,1,.057-.067.526.526,0,0,0,.182-.2.328.328,0,0,1,.291-.189,1.872,1.872,0,0,0,.241-.03,1.031,1.031,0,0,0,.473-.209.32.32,0,0,1,.186-.094,3.765,3.765,0,0,0,.406-.065.965.965,0,0,0,.285-.09A1.1,1.1,0,0,1,729.349,183.366Z" transform="translate(-717.843 -181.669)" fill="#a1cd3c"/>
          <path id="Path_1360" data-name="Path 1360" d="M841.841,320.134a.834.834,0,0,0-.081-.218c-.025-.052-.062-.055-.093-.009a1.771,1.771,0,0,0-.151.246.527.527,0,0,1-.39.344c-.049.009-.108.018-.132.072a.461.461,0,0,0-.085.26,1.383,1.383,0,0,0,.019.165.4.4,0,0,1-.09.352.31.31,0,0,0-.069.227,1.066,1.066,0,0,0,.044.306.267.267,0,0,0,.261.2,1.168,1.168,0,0,0,.2-.068.1.1,0,0,0,.048-.044,1.368,1.368,0,0,0,.1-.223,5.3,5.3,0,0,1,.18-.514,2.085,2.085,0,0,0,.144-.431.574.574,0,0,1,.084-.237.335.335,0,0,0,.041-.287A1.287,1.287,0,0,1,841.841,320.134Z" transform="translate(-821.176 -305.279)" fill="#a1cd3c"/>
          <path id="Path_1361" data-name="Path 1361" d="M778.665,212.959a.566.566,0,0,0,.163.114.147.147,0,0,1,.083.134c0,.059-.059.054-.1.062a.1.1,0,0,0-.093.095c0,.025-.011.05-.014.076a1.749,1.749,0,0,1-.067.246c-.02.076.022.113.1.091a.1.1,0,0,0,.03-.014.661.661,0,0,1,.372-.087.586.586,0,0,0,.2-.057.066.066,0,0,0,.049-.056c0-.043.031-.064.057-.091.075-.078.069-.131-.03-.162a.145.145,0,0,1-.11-.122.189.189,0,0,0-.085-.136.1.1,0,0,1-.036-.041.673.673,0,0,1-.111-.354.213.213,0,0,0-.235-.211.179.179,0,0,0-.189.1.27.27,0,0,0-.069.219A.356.356,0,0,0,778.665,212.959Z" transform="translate(-765.554 -209.193)" fill="#a1cd3c"/>
          <path id="Path_1362" data-name="Path 1362" d="M762.7,201.707c-.055.007-.11.005-.165.015a.806.806,0,0,1-.426,0,.251.251,0,0,0-.272.072c-.036.032-.039.062,0,.091a.27.27,0,0,1,.091.135.131.131,0,0,0,.12.1.883.883,0,0,1,.283.046.1.1,0,0,0,.029,0,.194.194,0,0,0,.046-.015,1.864,1.864,0,0,1,.425-.155.216.216,0,0,0,.106-.076.067.067,0,0,0,0-.1A.272.272,0,0,0,762.7,201.707Z" transform="translate(-750.554 -199.589)" fill="#a1cd3c"/>
          <path id="Path_1363" data-name="Path 1363" d="M672.7,266.209c-.037-.025-.079-.041-.116-.066-.074-.05-.168-.069-.228-.135a.873.873,0,0,0-.369-.218.563.563,0,0,0-.264-.06.65.65,0,0,0-.221.04.336.336,0,0,0-.18.1c-.027.026-.073.06-.05.1s.073,0,.109,0c.069-.01.127-.064.2-.061a2.436,2.436,0,0,1,.369.068.077.077,0,0,1,.037.023.882.882,0,0,0,.206.149.112.112,0,0,1,.054.079c.018.077.035.094.1.073a.2.2,0,0,1,.177.03.15.15,0,0,0,.168-.009C672.76,266.286,672.762,266.25,672.7,266.209Z" transform="translate(-669.576 -256.851)" fill="#a1cd3c"/>
          <path id="Path_1364" data-name="Path 1364" d="M773.822,217.315a.318.318,0,0,0-.3.015.329.329,0,0,1-.147.094c-.076.014-.086.025-.074.105a.225.225,0,0,1-.041.178.091.091,0,0,0,0,.121c.026.039.054.072.1.065a.156.156,0,0,0,.1-.032.4.4,0,0,1,.216-.08.074.074,0,0,0,.068-.049.3.3,0,0,0,.04-.126.127.127,0,0,1,.053-.113A.107.107,0,0,0,773.822,217.315Z" transform="translate(-760.777 -213.522)" fill="#a1cd3c"/>
          <path id="Path_1365" data-name="Path 1365" d="M685.242,271.06c-.085-.061-.2-.063-.278-.13-.016-.013-.05-.005-.076,0s-.066,0-.079,0a.352.352,0,0,0-.065,0c-.042.008-.093-.036-.123.011s.029.068.045.1.01.062-.037.068-.1.013-.142.023a.044.044,0,0,0-.04.045.04.04,0,0,0,.036.037,1.347,1.347,0,0,0,.427.047l.313-.06c.034-.007.068-.013.075-.053S685.273,271.082,685.242,271.06Z" transform="translate(-681.364 -261.49)" fill="#a1cd3c"/>
        </g>
      </g>
      <path id="Path_1366" data-name="Path 1366" d="M702.2,195.973a13.259,13.259,0,0,0-.111-1.685h0a13.063,13.063,0,0,0-1.372-4.382l-.016-.032q-.118-.226-.246-.446l-.043-.075q-.121-.208-.251-.412l-.058-.091q-.128-.2-.262-.392l-.063-.089c-.092-.13-.185-.258-.282-.385l-.048-.061a13.259,13.259,0,0,0-2.29-2.3c1.836,2.273,6.325,12.507-.028,17.858-8.755,7.374-18.526.341-18.8.145a13.248,13.248,0,0,0,2.746,2.829h0a13.158,13.158,0,0,0,21.12-10.477Z" transform="translate(-670.427 -177.363)" fill="#231f20" opacity="0.16" style="mix-blend-mode: multiply;isolation: isolate"/>
    </g>
    <g id="orange_planet" data-name="orange planet" transform="translate(1084.913 9283.93)">
      <g id="Group_906" data-name="Group 906" transform="translate(0 0)">
        <g id="Group_907" data-name="Group 907" transform="translate(0 0)">
          <g id="outline" transform="translate(2.574 64.319)">
            <path id="Path_347" data-name="Path 347" d="M382.3,1067.4c-1.843,1.28-6.369-.115-5.981-1.01C377.07,1064.7,384.146,1066.123,382.3,1067.4Zm3.5-2.638c.684-.993,4.795-.264,4.555.371s-5.178.527-4.555-.371Zm46.033,12.967c1.362-1.528,8.657,1.388,8.274,3.128s-9.636-1.6-8.274-3.128Zm-33.8-11.679c-18.3-3.615-28.441-7.067-32.686-8.721a48.312,48.312,0,0,0,6.914,13.255c7.776.121,15.318-6.768,36.21-.312a138.971,138.971,0,0,1,28.638,12.612,47.726,47.726,0,0,0,4.6-3.263,240.094,240.094,0,0,0-43.679-13.57Z" transform="translate(-365.346 -1057.331)" fill="#ef4316" opacity="0.21" style="isolation: isolate"/>
            <path id="Path_351" data-name="Path 351" d="M614.567,1176.046c1.962-1.99,2.867-.862,3.32.178S613.955,1176.667,614.567,1176.046Z" transform="translate(-574.143 -1155.895)" fill="#690058" opacity="0.1" style="isolation: isolate"/>
            <g id="Group_199" data-name="Group 199" transform="translate(11.348 12.818)">
              <path id="Path_358" data-name="Path 358" d="M484.941,1154.253c-.273.094-.531.179-.8.257a22.161,22.161,0,0,1-1.958-3.089c-.148-.265-.3-.53-.452-.8-3-5.2-6.825-9.017-11.084-11.045-4.906-2.325-10.546-2.473-15.913-2.293-6.326.218-13.51.991-18.869,5.039l-.468-.616c5.523-4.188,12.863-4.977,19.314-5.2,5.46-.187,11.217-.031,16.271,2.372,4.4,2.09,8.354,6.022,11.428,11.357.148.265.3.538.452.8A20.4,20.4,0,0,0,484.941,1154.253Z" transform="translate(-435.393 -1136.451)" fill="url(#radial-gradient)"/>
            </g>
          </g>
          <g id="outline-2" data-name="outline">
            <ellipse id="Ellipse_663" data-name="Ellipse 663" cx="48.497" cy="48.497" rx="48.497" ry="48.497" transform="translate(0.051)" fill="url(#linear-gradient)"/>
            <path id="Path_345" data-name="Path 345" d="M445.451,905.817s-22.308,1.723-26.886-6.4-9.219-10.156-16.5-9.3-16.432,6.714-25.269,4.348-25.636-11.619-25.636-11.619c-1.447,4.465-1.7,12.816-1.7,12.816s3.939,14,15.017,14.85,36.017,4.719,52.41,9.532,20.871,3.379,20.871,3.379A45.9,45.9,0,0,0,445.451,905.817Zm-79.775.428c-1.153-2.863,6.215-3.2,7.658-1.132s-5.223,7.2-7.658,1.132Zm31.212-13.076c6.9-2.812,19.028,2.232,17.876,6.758s-23.208-4.588-17.876-6.758Zm13.893,23.182c-.2-4.026,4.7-1.415,5.853.687s-5.7,2.565-5.853-.687Zm21.434-.094a1.59,1.59,0,1,1,3.171.081c-.054,2.348-3.233,1.03-3.171-.081Z" transform="translate(-349.46 -846.8)" fill="#974d8b" opacity="0.1" style="isolation: isolate"/>
            <path id="Path_346" data-name="Path 346" d="M466.591,818.788S450.6,808.765,437.951,806.2s-26.635,5.383-42.82,2.6c-8.378-1.441-16.178-6.133-21.741-10.321a48.781,48.781,0,0,1,4.875-8.814c2.951,2.958,11.115,10.657,18.746,13.433,9.532,3.462,18.319-.3,34.373.62,13.743.793,30.613,9.088,35.165,11.451C466.613,816.37,466.624,817.575,466.591,818.788Z" transform="translate(-369.513 -768.709)" fill="url(#radial-gradient-2)"/>
            <path id="Path_353" data-name="Path 353" d="M607.973,736.862c.233,1.01,1.995,1.2,1.883.048S607.578,735.15,607.973,736.862Z" transform="translate(-566.053 -723.57)" fill="#690058" opacity="0.1" style="isolation: isolate"/>
            <g id="Group_197" data-name="Group 197" transform="translate(11.675 7.31)">
              <path id="Path_355" data-name="Path 355" d="M490.119,706.721c-.6-.265-1.2-.53-1.81-.788.273-.179.538-.343.811-.5.437.187.874.374,1.31.569l.952.421a151.254,151.254,0,0,0,42.6,11.6c1.607.2,3.221.367,4.836.53,3.9.406,7.941.827,11.856,1.615a50.223,50.223,0,0,1,5.023,1.271c.2.335.406.671.6,1.014a50.141,50.141,0,0,0-5.78-1.521c-3.885-.78-7.894-1.2-11.779-1.6-1.622-.172-3.237-.335-4.852-.53a152.039,152.039,0,0,1-42.816-11.669Z" transform="translate(-477.49 -705.434)" fill="url(#radial-gradient-3)"/>
              <path id="Path_356" data-name="Path 356" d="M505.279,782.293c-3.846-.257-7.551-1.583-11.147-2.878-.718-.257-1.435-.515-2.153-.764a77.65,77.65,0,0,0-28.042-4.634c-1.935.07-3.9.226-5.8.375a82.082,82.082,0,0,1-9,.4,42.343,42.343,0,0,1-24.852-9.017,25.1,25.1,0,0,1-2.753-2.488c.164-.2.335-.406.515-.6a24.006,24.006,0,0,0,2.722,2.481,41.563,41.563,0,0,0,24.392,8.845,82.7,82.7,0,0,0,8.916-.39c1.911-.156,3.892-.312,5.842-.374a78.351,78.351,0,0,1,28.323,4.665c.718.25,1.435.507,2.161.772a42.836,42.836,0,0,0,10.663,2.823C505.138,781.77,505.208,782.035,505.279,782.293Z" transform="translate(-421.527 -753.408)" fill="url(#radial-gradient-4)"/>
            </g>
            <g id="Group_198" data-name="Group 198" transform="translate(0.092 51.217)">
              <path id="Path_357" data-name="Path 357" d="M441.3,996.859c-.14.273-.289.546-.445.811-.523.039-1.045.078-1.56.1-3.783.164-8.838-.406-11.474-4.064a17.284,17.284,0,0,1-1.357-2.434c-.71-1.474-1.381-2.863-2.675-3.611a5.3,5.3,0,0,0-3.175-.515,17.074,17.074,0,0,0-5.967,2.293,16.721,16.721,0,0,1-13.1,2.176l-.289-.039q-8.623-1.065-17.247-2.161a7.816,7.816,0,0,1-3.182-.89,2.914,2.914,0,0,1-1.459-3.081,4.051,4.051,0,0,1,1.108-1.677,5.435,5.435,0,0,0,.757-.92,3.209,3.209,0,0,0-.655-3.651,6.608,6.608,0,0,0-3.783-1.747c-3.588-.608-7.285.211-10.858,1a34.763,34.763,0,0,1-9.618,1.209,17.24,17.24,0,0,1-6.225-1.63c-.031-.3-.047-.6-.07-.9a16.536,16.536,0,0,0,6.35,1.747,34.118,34.118,0,0,0,9.4-1.186c3.643-.811,7.41-1.646,11.147-1.006a7.359,7.359,0,0,1,4.22,1.973,3.952,3.952,0,0,1,.764,4.587,6.316,6.316,0,0,1-.858,1.053,3.433,3.433,0,0,0-.92,1.342,2.173,2.173,0,0,0,1.115,2.223,7.1,7.1,0,0,0,2.863.78q8.623,1.111,17.254,2.161l.281.039a21.412,21.412,0,0,0,7.785.016,21.879,21.879,0,0,0,4.852-2.106,17.8,17.8,0,0,1,6.248-2.379,5.881,5.881,0,0,1,3.651.616c1.505.866,2.262,2.426,3,3.939a15.427,15.427,0,0,0,1.279,2.317c2.434,3.385,7.223,3.9,10.8,3.744C439.931,996.96,440.618,996.913,441.3,996.859Z" transform="translate(-350.025 -976.46)" fill="url(#radial-gradient-5)"/>
            </g>
            <g id="Group_200" data-name="Group 200" transform="translate(25.567 5.633)">
              <path id="Path_359" data-name="Path 359" d="M567.974,707.664c-.437-.086-.874-.172-1.295-.257a79.712,79.712,0,0,0-16.989-1.623,5.158,5.158,0,0,1-2.013-.242c-1.412-.554-1.935-1.974-2.434-3.346a11.243,11.243,0,0,0-.741-1.732c-1.24-2.184-3.923-2.933-6.006-2.9a21.9,21.9,0,0,0-6.115,1.287l-.983.3c-5.5,1.669-9.93,2.168-13.947,1.575a16.8,16.8,0,0,1-10.172-5.273c.242-.125.476-.258.718-.374a15.963,15.963,0,0,0,9.563,4.875c3.9.577,8.229.086,13.611-1.545l.975-.3a22.472,22.472,0,0,1,6.342-1.326c2.3-.031,5.289.819,6.693,3.292a12.96,12.96,0,0,1,.8,1.849c.46,1.272.9,2.465,1.989,2.894a4.429,4.429,0,0,0,1.685.187,80.3,80.3,0,0,1,17.184,1.638l.351.07C567.459,707.024,567.724,707.344,567.974,707.664Z" transform="translate(-507.28 -695.082)" fill="url(#radial-gradient-6)"/>
            </g>
            <g id="Group_903" data-name="Group 903" transform="translate(47.227 17.277)">
              <ellipse id="Ellipse_664" data-name="Ellipse 664" cx="1.132" cy="1.132" rx="1.132" ry="1.132" transform="translate(17.938 28.316)" fill="#ff7a40"/>
              <ellipse id="Ellipse_665" data-name="Ellipse 665" cx="0.752" cy="0.752" rx="0.752" ry="0.752" transform="translate(37.981 13.853)" fill="#ff7a40"/>
              <ellipse id="Ellipse_666" data-name="Ellipse 666" cx="0.415" cy="0.415" rx="0.415" ry="0.415" transform="translate(33.096 8.905)" fill="#ff7a40"/>
              <ellipse id="Ellipse_667" data-name="Ellipse 667" cx="0.32" cy="0.32" rx="0.32" ry="0.32" transform="translate(31.601)" fill="#ff7a40"/>
              <ellipse id="Ellipse_668" data-name="Ellipse 668" cx="0.301" cy="0.301" rx="0.301" ry="0.301" transform="translate(28.128 0.227)" fill="#ff7a40"/>
              <ellipse id="Ellipse_669" data-name="Ellipse 669" cx="0.51" cy="0.51" rx="0.51" ry="0.51" transform="translate(38.275 20.995)" fill="#ff7a40"/>
              <ellipse id="Ellipse_670" data-name="Ellipse 670" cx="0.51" cy="0.51" rx="0.51" ry="0.51" transform="translate(19.341 20.995)" fill="#ff7a40"/>
              <ellipse id="Ellipse_671" data-name="Ellipse 671" cx="0.51" cy="0.51" rx="0.51" ry="0.51" transform="translate(20.709 14.605)" fill="#ff7a40"/>
              <ellipse id="Ellipse_672" data-name="Ellipse 672" cx="0.327" cy="0.327" rx="0.327" ry="0.327" transform="translate(24.558 6.608)" fill="#ff7a40"/>
              <ellipse id="Ellipse_673" data-name="Ellipse 673" cx="1.132" cy="1.132" rx="1.132" ry="1.132" transform="translate(27.701 21.368)" fill="#ff7a40"/>
              <ellipse id="Ellipse_674" data-name="Ellipse 674" cx="1.011" cy="1.011" rx="1.011" ry="1.011" transform="translate(38.69 38.977)" fill="#ff7a40"/>
              <ellipse id="Ellipse_675" data-name="Ellipse 675" cx="1.011" cy="1.011" rx="1.011" ry="1.011" transform="translate(32.963 53.089)" fill="#ff7a40"/>
              <ellipse id="Ellipse_676" data-name="Ellipse 676" cx="0.368" cy="0.368" rx="0.368" ry="0.368" transform="translate(7.137 73.741)" fill="#ff7a40"/>
              <ellipse id="Ellipse_677" data-name="Ellipse 677" cx="0.368" cy="0.368" rx="0.368" ry="0.368" transform="translate(0 74.705)" fill="#ff7a40"/>
              <ellipse id="Ellipse_678" data-name="Ellipse 678" cx="1.011" cy="1.011" rx="1.011" ry="1.011" transform="translate(17.048 64.457)" fill="#ff7a40"/>
              <ellipse id="Ellipse_679" data-name="Ellipse 679" cx="0.863" cy="0.863" rx="0.863" ry="0.863" transform="translate(23.574 46.227)" fill="#ff7a40"/>
              <ellipse id="Ellipse_680" data-name="Ellipse 680" cx="0.428" cy="0.428" rx="0.428" ry="0.428" transform="translate(34.485 45.943)" fill="#ff7a40"/>
              <ellipse id="Ellipse_681" data-name="Ellipse 681" cx="0.428" cy="0.428" rx="0.428" ry="0.428" transform="translate(33.119 36)" fill="#ff7a40"/>
              <ellipse id="Ellipse_682" data-name="Ellipse 682" cx="0.749" cy="0.749" rx="0.749" ry="0.749" transform="translate(35.131 29.723)" fill="#ff7a40"/>
              <ellipse id="Ellipse_683" data-name="Ellipse 683" cx="0.737" cy="0.737" rx="0.737" ry="0.737" transform="translate(6.258 66.78)" fill="#ff7a40"/>
              <ellipse id="Ellipse_684" data-name="Ellipse 684" cx="0.558" cy="0.558" rx="0.558" ry="0.558" transform="translate(25.481 59.048)" fill="#ff7a40"/>
            </g>
            <path id="Path_1697" data-name="Path 1697" d="M504.946,791.569A48.543,48.543,0,0,1,436.379,796c-.913-.806-1.77-1.674-2.574-2.5,20.047,15.276,45.888-.811,56.849-13.238s25.021-41.574,7.385-59.584c.913.7,1.88,1.44,2.793,2.247A48.625,48.625,0,0,1,504.946,791.569Z" transform="translate(-420.141 -710.906)" fill="#91345c" opacity="0.17" style="mix-blend-mode: multiply;isolation: isolate"/>
          </g>
        </g>
      </g>
      <g id="Group_301" data-name="Group 301" transform="translate(12.157 78.198)">
        <g id="outline-3" data-name="outline" transform="translate(0 0)">
          <path id="Path_351-2" data-name="Path 351" d="M614.568,1176.064c1.994-2.024,2.915-.876,3.375.181S613.946,1176.7,614.568,1176.064Z" transform="translate(-585.009 -1168.609)" fill="#690058" opacity="0.1" style="isolation: isolate"/>
          <g id="Group_199-2" data-name="Group 199">
            <path id="Path_358-2" data-name="Path 358" d="M485.764,1154.549c-.278.1-.539.182-.817.262a22.526,22.526,0,0,1-1.991-3.14c-.151-.27-.309-.539-.46-.809-3.045-5.289-6.939-9.167-11.268-11.229-4.988-2.363-10.721-2.514-16.177-2.332-6.431.222-13.735,1.007-19.182,5.123l-.476-.626c5.614-4.258,13.077-5.059,19.634-5.289,5.551-.19,11.4-.032,16.542,2.411,4.472,2.125,8.493,6.122,11.617,11.546.151.269.309.547.46.817A20.729,20.729,0,0,0,485.764,1154.549Z" transform="translate(-435.393 -1136.451)" fill="url(#radial-gradient)"/>
          </g>
        </g>
      </g>
    </g>
  </g>
</svg>
