<svg xmlns="http://www.w3.org/2000/svg" xmlns:xlink="http://www.w3.org/1999/xlink" width="2886" height="1007" viewBox="0 0 2886 1007">
  <defs>
    <clipPath id="clip-path">
      <rect id="Rectangle_1036" data-name="Rectangle 1036" width="2886" height="1007" transform="translate(-406 22385)" fill="#fff" stroke="#707070" stroke-width="1"/>
    </clipPath>
    <linearGradient id="linear-gradient" x1="0.205" y1="0.129" x2="0.827" y2="0.912" gradientUnits="objectBoundingBox">
      <stop offset="0" stop-color="#ff933a"/>
      <stop offset="0.197" stop-color="#f87e2e"/>
      <stop offset="0.291" stop-color="#f57228"/>
      <stop offset="0.424" stop-color="#f36b24"/>
      <stop offset="0.66" stop-color="#f36a24"/>
      <stop offset="1" stop-color="#f16421"/>
    </linearGradient>
  </defs>
  <g id="Mask_Group_528" data-name="Mask Group 528" transform="translate(406 -22385)" clip-path="url(#clip-path)">
    <g id="Group_3224" data-name="Group 3224" transform="translate(-330.018 22985.502)">
      <g id="Group_3223" data-name="Group 3223" transform="translate(27.804 92.608)">
        <path id="Ellipse_663" data-name="Ellipse 663" d="M1435.056,0C2441.084,0,2870.112,668.316,2870.112,668.316s-642.5,668.316-1435.056,668.316S0,668.316,0,668.316,429.028,0,1435.056,0Z" transform="translate(-92 -349.521)" fill="url(#linear-gradient)"/>
        <path id="Path_6555" data-name="Path 6555" d="M-435.864,1671.054q-.443-13.876-1.118-27.68c-110.68-69.905-519.646-314.558-852.866-337.954-389.439-27.279-602.6,83.907-833.839-18.3-179.215-79.353-370.536-294.873-447.519-387.788a1537.715,1537.715,0,0,0-119.337,257.049c134.521,122.186,321.068,257.164,521.236,299.067,392.615,82.164,731.673-152.284,1038.753-76.743C-823.718,1454.4-435.8,1750.3-435.8,1750.3Q-434.9,1710.5-435.864,1671.054Z" transform="translate(2808.989 -442.508)" fill="#974d8b" opacity="0.1" style="isolation: isolate"/>
        <path id="Path_6556" data-name="Path 6556" d="M-696.979,2398.731C-584.337,2249.286-497.486,2070.8-444.964,1873.6c-54.844,4.386-544.525,36.945-649.724-189.227-111.235-239.8-224.518-299.841-401.787-274.488-177.1,25.428-400.15,198.193-615.361,128.361-206.123-67.11-590.333-320.467-622.185-341.59a1740.851,1740.851,0,0,0-16.061,236.638,1733.633,1733.633,0,0,0,23.965,288.368c53.63,121.281,152.8,275.288,314.228,290.341,269.769,25.158,877.112,139.313,1276.323,281.41C-902.473,2376.225-768.286,2396.332-696.979,2398.731ZM-762.3,2181.372v0c3.189-64.271,78.47-66.7,77.231,2.4C-686.378,2253.1-763.788,2214.165-762.3,2181.372ZM-2382.681,1885.8h0c-28.073-84.5,151.346-94.6,186.493-33.422C-2161.217,1913.453-2323.385,2064.883-2382.681,1885.8Zm760.082-386.015h0c168.044-83,463.388,65.895,435.321,199.522S-1752.447,1563.863-1622.6,1499.785Zm338.338,684.364c-4.759-118.874,114.569-41.777,142.532,20.278S-1280.494,2280.165-1284.261,2184.149Z" transform="translate(2750.082 -353.558)" fill="#974d8b" opacity="0.1" style="isolation: isolate"/>
      </g>
    </g>
  </g>
</svg>
