<svg xmlns="http://www.w3.org/2000/svg" viewBox="0 0 689 689"><defs><style>.cls-1{fill:#ef6624;}.cls-2{isolation:isolate;}.cls-3{fill:#fff;}</style></defs><g id="Layer_2" data-name="Layer 2"><g id="Layer_1-2" data-name="Layer 1"><path id="Path_6318" data-name="Path 6318" class="cls-1" d="M143,0A143,143,0,1,1,0,143,143,143,0,0,1,143,0Z"/><path id="Path_6318-2" data-name="Path 6318-2" class="cls-1" d="M546,0A143,143,0,1,1,403,143,143,143,0,0,1,546,0Z"/><path id="Path_6318-3" data-name="Path 6318-3" class="cls-1" d="M143,403A143,143,0,1,1,0,546,143,143,0,0,1,143,403Z"/><path id="Path_6318-4" data-name="Path 6318-4" class="cls-1" d="M546,403A143,143,0,1,1,403,546,143,143,0,0,1,546,403Z"/><g id="INNOVATION" class="cls-2"><g class="cls-2"><path class="cls-3" d="M55.52,135.63h4.15v18.89H55.52Z"/><path class="cls-3" d="M64.4,135.63h3.83l8.85,11.63V135.63h4.11v18.89H77.65l-9.15-12v12H64.4Z"/><path class="cls-3" d="M85.73,135.63h3.83l8.85,11.63V135.63h4.11v18.89H99l-9.15-12v12h-4.1Z"/><path class="cls-3" d="M106.22,145.13v-.06a10,10,0,0,1,20.08,0v0a10,10,0,0,1-20.08.06Zm15.74,0v-.06a5.74,5.74,0,0,0-5.72-5.93,5.65,5.65,0,0,0-5.67,5.88v0a5.74,5.74,0,0,0,5.72,5.94A5.65,5.65,0,0,0,122,145.13Z"/><path class="cls-3" d="M127.17,135.63h4.59l4.94,13.3,4.94-13.3h4.48l-7.64,19h-3.67Z"/><path class="cls-3" d="M152.82,135.49h3.83l8.1,19h-4.34l-1.73-4.24h-8L149,154.52h-4.24Zm4.37,11.12-2.51-6.13-2.51,6.13Z"/><path class="cls-3" d="M169.64,139.46h-5.75v-3.83h15.66v3.83H173.8v15.06h-4.16Z"/><path class="cls-3" d="M182.93,135.63h4.15v18.89h-4.15Z"/><path class="cls-3" d="M191,145.13v-.06a10,10,0,0,1,20.09,0v0a10,10,0,0,1-20.09.06Zm15.74,0v-.06a5.73,5.73,0,0,0-5.72-5.93,5.65,5.65,0,0,0-5.67,5.88v0A5.74,5.74,0,0,0,201,151,5.65,5.65,0,0,0,206.71,145.13Z"/><path class="cls-3" d="M214.76,135.63h3.83l8.86,11.63V135.63h4.1v18.89H228l-9.15-12v12h-4.1Z"/></g></g><g id="PEOPLE" class="cls-2"><g class="cls-2"><path class="cls-3" d="M492.47,135.63h7.72c4.51,0,7.23,2.67,7.23,6.53v.05c0,4.38-3.4,6.64-7.64,6.64h-3.16v5.67h-4.15Zm7.45,9.52c2.08,0,3.29-1.24,3.29-2.86v0c0-1.86-1.3-2.86-3.37-2.86h-3.22v5.77Z"/><path class="cls-3" d="M510.5,135.63h14.26v3.69H514.63v3.84h8.91v3.69h-8.91v4h10.26v3.7H510.5Z"/><path class="cls-3" d="M527.76,145.13v-.06a10,10,0,0,1,20.08,0v0a9.78,9.78,0,0,1-10.07,9.78A9.68,9.68,0,0,1,527.76,145.13Zm15.73,0v-.06a5.73,5.73,0,0,0-5.72-5.93A5.65,5.65,0,0,0,532.1,145v0a5.74,5.74,0,0,0,5.72,5.94A5.65,5.65,0,0,0,543.49,145.13Z"/><path class="cls-3" d="M551.54,135.63h7.72c4.51,0,7.24,2.67,7.24,6.53v.05c0,4.38-3.4,6.64-7.64,6.64H555.7v5.67h-4.16Zm7.45,9.52c2.08,0,3.3-1.24,3.3-2.86v0c0-1.86-1.3-2.86-3.38-2.86H555.7v5.77Z"/><path class="cls-3" d="M569.58,135.63h4.16v15.11h9.42v3.78H569.58Z"/><path class="cls-3" d="M586.29,135.63h14.25v3.69H590.42v3.84h8.91v3.69h-8.91v4h10.26v3.7H586.29Z"/></g></g><g id="EXPERIENCE" class="cls-2"><g class="cls-2"><path class="cls-3" d="M55.56,538.63H69.81v3.69H59.69v3.84h8.9v3.7h-8.9v4H69.94v3.7H55.56Z"/><path class="cls-3" d="M78.8,547.91l-6.32-9.28h4.86l3.94,6.12,4-6.12H90l-6.32,9.23,6.59,9.66H85.44L81.2,551l-4.26,6.48H72.21Z"/><path class="cls-3" d="M93.41,538.63h7.72c4.51,0,7.23,2.67,7.23,6.53v.05c0,4.38-3.4,6.64-7.64,6.64H97.57v5.67H93.41Zm7.45,9.53c2.08,0,3.29-1.25,3.29-2.87v0c0-1.86-1.29-2.86-3.37-2.86H97.57v5.78Z"/><path class="cls-3" d="M111.45,538.63H125.7v3.69H115.58v3.84h8.9v3.7h-8.9v4h10.25v3.7H111.45Z"/><path class="cls-3" d="M129.54,538.63h8.63a7.53,7.53,0,0,1,5.51,1.91,6,6,0,0,1,1.62,4.32v.06a5.86,5.86,0,0,1-4.05,5.85l4.62,6.75H141l-4-6h-3.27v6h-4.15Zm8.36,9.17c2,0,3.19-1.08,3.19-2.67v0c0-1.78-1.24-2.7-3.27-2.7h-4.13v5.42Z"/><path class="cls-3" d="M149.25,538.63h4.15v18.89h-4.15Z"/><path class="cls-3" d="M158.13,538.63h14.25v3.69H162.26v3.84h8.9v3.7h-8.9v4h10.26v3.7H158.13Z"/><path class="cls-3" d="M176.22,538.63h3.83l8.85,11.63V538.63H193v18.89h-3.54l-9.15-12v12h-4.1Z"/><path class="cls-3" d="M196.71,548.13v-.06a9.6,9.6,0,0,1,9.85-9.77,9.72,9.72,0,0,1,7.45,2.92l-2.64,3a7,7,0,0,0-4.83-2.13,5.59,5.59,0,0,0-5.48,5.88v.05c0,3.24,2.24,5.94,5.48,5.94a6.79,6.79,0,0,0,5-2.21l2.65,2.67a9.66,9.66,0,0,1-7.75,3.38A9.54,9.54,0,0,1,196.71,548.13Z"/><path class="cls-3" d="M217.47,538.63h14.26v3.69H221.6v3.84h8.91v3.7H221.6v4h10.26v3.7H217.47Z"/></g></g><g id="DIVERSIFICATION" class="cls-2"><g class="cls-2"><path class="cls-3" d="M423.59,538.63H431c5.94,0,10,4.07,10,9.39v.05c0,5.32-4.1,9.45-10,9.45h-7.37ZM431,553.77a5.39,5.39,0,0,0,5.7-5.64v-.06a5.43,5.43,0,0,0-5.7-5.69h-3.21v11.39Z"/><path class="cls-3" d="M444.89,538.63h4.16v18.89h-4.16Z"/><path class="cls-3" d="M452.16,538.63h4.59l4.94,13.3,4.93-13.3h4.49l-7.64,19H459.8Z"/><path class="cls-3" d="M474,538.63h14.25v3.69H478.16v3.84h8.9v3.7h-8.9v4h10.25v3.7H474Z"/><path class="cls-3" d="M492.12,538.63h8.63a7.53,7.53,0,0,1,5.51,1.91,6,6,0,0,1,1.62,4.32v.06a5.86,5.86,0,0,1-4.05,5.85l4.62,6.75h-4.86l-4-6h-3.27v6h-4.15Zm8.36,9.17c2,0,3.19-1.08,3.19-2.67v0c0-1.78-1.24-2.7-3.27-2.7h-4.13v5.42Z"/><path class="cls-3" d="M510.34,554.77l2.46-2.94a8.68,8.68,0,0,0,5.64,2.29c1.7,0,2.73-.67,2.73-1.78v-.05c0-1.06-.65-1.6-3.81-2.41-3.81-1-6.26-2-6.26-5.77v-.06c0-3.43,2.75-5.69,6.61-5.69a11,11,0,0,1,7,2.4l-2.16,3.13a8.86,8.86,0,0,0-4.91-1.86c-1.6,0-2.43.73-2.43,1.64v.06c0,1.24.81,1.64,4.07,2.48,3.84,1,6,2.38,6,5.67v0c0,3.76-2.87,5.86-6.94,5.86A12.06,12.06,0,0,1,510.34,554.77Z"/><path class="cls-3" d="M529.11,538.63h4.15v18.89h-4.15Z"/><path class="cls-3" d="M538,538.63h14.39v3.78H542.15v4h9v3.78h-9v7.31H538Z"/><path class="cls-3" d="M555.89,538.63h4.16v18.89h-4.16Z"/><path class="cls-3" d="M563.94,548.13v-.06a9.6,9.6,0,0,1,9.85-9.77,9.76,9.76,0,0,1,7.45,2.92l-2.65,3a7,7,0,0,0-4.83-2.13,5.6,5.6,0,0,0-5.48,5.88v.05c0,3.24,2.24,5.94,5.48,5.94a6.83,6.83,0,0,0,5-2.21l2.64,2.67a9.64,9.64,0,0,1-7.74,3.38A9.54,9.54,0,0,1,563.94,548.13Z"/><path class="cls-3" d="M591.18,538.49H595l8.1,19h-4.35L597,553.28h-8l-1.72,4.24h-4.24Zm4.37,11.12L593,543.49l-2.51,6.12Z"/><path class="cls-3" d="M608,542.46h-5.75v-3.83H617.9v3.83h-5.75v15.06H608Z"/><path class="cls-3" d="M621.28,538.63h4.16v18.89h-4.16Z"/><path class="cls-3" d="M629.33,548.13v-.06a10,10,0,0,1,20.08-.05v.05a10,10,0,0,1-20.08.06Zm15.74,0v-.06a5.74,5.74,0,0,0-5.73-5.93,5.64,5.64,0,0,0-5.66,5.88v.05A5.74,5.74,0,0,0,639.4,554,5.65,5.65,0,0,0,645.07,548.13Z"/><path class="cls-3" d="M653.12,538.63H657l8.85,11.63V538.63h4.11v18.89h-3.54l-9.15-12v12h-4.1Z"/></g></g></g></g></svg>