<svg xmlns="http://www.w3.org/2000/svg" xmlns:xlink="http://www.w3.org/1999/xlink" width="689" height="676" viewBox="0 0 689 676">
  <defs>
    <clipPath id="clip-path">
      <circle id="Ellipse_641" data-name="Ellipse 641" cx="111.043" cy="111.043" r="111.043" fill="none"/>
    </clipPath>
    <clipPath id="clip-path-2">
      <circle id="Ellipse_740" data-name="Ellipse 740" cx="143" cy="143" r="143" transform="translate(213 4703)" fill="#f16522"/>
    </clipPath>
    <clipPath id="clip-path-3">
      <rect id="Rectangle_799" data-name="Rectangle 799" width="59" height="28" transform="translate(10026 4909)" fill="#fff" stroke="#707070" stroke-width="1"/>
    </clipPath>
  </defs>
  <g id="Group_3222" data-name="Group 3222" transform="translate(-213 -4703)">
    <circle id="Ellipse_299" data-name="Ellipse 299" cx="143" cy="143" r="143" transform="translate(213 4703)" fill="#ef6624"/>
    <circle id="Ellipse_299-2" data-name="Ellipse 299" cx="143" cy="143" r="143" transform="translate(616 4703)" fill="#ef6624"/>
    <g id="Group_530" data-name="Group 530" transform="translate(810.645 5113.41)">
      <g id="Group_529" data-name="Group 529" transform="translate(-163.645 -388.921)" clip-path="url(#clip-path)">
        <g id="Group_528" data-name="Group 528" transform="translate(-0.613 23.857)">
          <path id="Path_1303" data-name="Path 1303" d="M-133.148-283.569c-1.229,2.663,32.274,56.263,46.072,86.024h10.46c13.947-30.523,48.358-87.288,47.125-89.957-1.484-3.214,4.525-.243-13.439-10.038s-15.58-27.3-15.738-32.282h-46.315c-.159,4.979,2.227,22.485-15.736,32.282S-131.664-286.781-133.148-283.569Z" transform="translate(194.852 424.663)" fill="#a8a6a1"/>
          <path id="Path_1304" data-name="Path 1304" d="M-137.9-215.138h72.612c-.2-11.721-.38-19.038-.528-19.854-.825-4.535-1.187-6.2-3.356-10.167-1.687-3.079-8.329-14.678-10.386-17.546C-85.314-270.728-99-292.15-103.45-301.27c-3.282-6.724-3.513-12.72-8.751-10.713s-29.755,9.281-36.4,13.649c-.215.141,5.9,14.549,7,22.017C-139.948-265.164-135.192-230.828-137.9-215.138Z" transform="translate(179.422 442.256)" fill="#fff"/>
          <path id="Path_1305" data-name="Path 1305" d="M-120.493-221.949c.888-5.206-.11-34.851-1.167-44.489-1.824-16.62-3.631-32.164-8.9-38.844-1.412-2.057-9.813,5.851-10.727,6.754-8.223,8.118-11.229,23.543-18.819,52.395a117.257,117.257,0,0,0-3.844,24.184Z" transform="translate(163.95 449.067)" fill="#fff"/>
          <path id="Path_1306" data-name="Path 1306" d="M-34.817-215.108c-2.709-15.69,2.049-50.027,3.7-61.18,1.107-7.467,7.218-21.876,7-22.017-6.646-4.368-31.161-11.645-36.4-13.649s-8.476,2.94-11.758,9.667c-4.453,9.12-15.13,31.589-20.884,39.613-2.057,2.866-8.7,14.467-10.386,17.546-2.169,3.965-2.531,5.632-3.358,10.167-.149.813-.358,8.132-.6,19.854Z" transform="translate(220.873 442.227)" fill="#fff"/>
          <path id="Path_1307" data-name="Path 1307" d="M-72.164-221.949c-.888-5.206.11-34.851,1.167-44.489,1.824-16.62,3.631-32.164,8.9-38.844,1.412-2.057,9.813,5.851,10.727,6.754,8.223,8.118,11.229,23.543,18.819,52.395a117.256,117.256,0,0,1,3.844,24.184Z" transform="translate(256.167 449.067)" fill="#fff"/>
          <g id="Group_526" data-name="Group 526" transform="translate(32.682 150.772)">
            <path id="Path_6319" data-name="Path 6319" d="M19.031,0H147.273A19.031,19.031,0,0,1,166.3,19.031V125.008H0V19.031A19.031,19.031,0,0,1,19.031,0Z" transform="translate(0.42)" fill="#fde0b6"/>
            <rect id="Rectangle_351" data-name="Rectangle 351" width="4.88" height="180.234" transform="translate(81.133)" fill="#f7aa3e"/>
          </g>
          <g id="Group_527" data-name="Group 527" transform="translate(37.7)">
            <ellipse id="Ellipse_636" data-name="Ellipse 636" cx="65.064" cy="68.144" rx="65.064" ry="68.144" transform="translate(8.892 28.324)" fill="#f7aa3e"/>
            <path id="Path_1321" data-name="Path 1321" d="M73.956,0A73.956,73.956,0,1,1,0,73.956,73.956,73.956,0,0,1,73.956,0Z" fill="#fff"/>
            <path id="Path_1315" data-name="Path 1315" d="M-10.624-317.678s0,65.5-65.064,65.5c-59.838,0-65.064-65.5-65.064-65.5s0-44.9,65.064-44.9S-10.624-317.678-10.624-317.678Z" transform="translate(149.644 391.635)" fill="#f7aa3e"/>
            <path id="Path_1318" data-name="Path 1318" d="M-82.439-356.893c-51.618,0-51.618,35.616-51.618,35.616a66.6,66.6,0,0,0,2.117,11c11.623,11.49,28.259,20.052,52.035,20.052,19.811,0,34.624-5.031,45.707-12.551a64.7,64.7,0,0,0,3.376-18.5S-30.822-356.893-82.439-356.893Z" transform="translate(156.396 397.363)" fill="#fff" opacity="0.223"/>
            <path id="Path_1319" data-name="Path 1319" d="M-107.331-343.478a8.3,8.3,0,0,1-8.295,8.295,8.3,8.3,0,0,1-8.3-8.295,8.3,8.3,0,0,1,8.3-8.3A8.3,8.3,0,0,1-107.331-343.478Z" transform="translate(166.615 402.524)" fill="#fde0b6" opacity="0.593"/>
            <circle id="Ellipse_640" data-name="Ellipse 640" cx="6.544" cy="6.544" r="6.544" transform="translate(29.604 65.508)" fill="#fde0b6" opacity="0.593"/>
          </g>
        </g>
      </g>
    </g>
    <path id="Intersection_1" data-name="Intersection 1" d="M-4279.113,1271.409c0-77.044,62.68-139.5,140-139.5s140,62.457,140,139.5-62.68,139.5-140,139.5S-4279.113,1348.453-4279.113,1271.409Z" transform="translate(4492.113 3574.091)" fill="none"/>
    <g id="Mask_Group_521" data-name="Mask Group 521" clip-path="url(#clip-path-2)">
      <g id="Group_2862" data-name="Group 2862" transform="translate(-7 -19.842)">
        <g id="Group_215" data-name="Group 215" transform="translate(365.057 4729.221)">
          <path id="Path_383" data-name="Path 383" d="M-4125.273,1205.989l133-41.087s14.055-4.527,18.82,8.337-7.862,19.3-7.862,19.3l-134.295,41.927s1.094,4.447-2.087,5.638-4.645.08-5.718-3.415-8.735-28.745-8.735-28.745-1.47-3.851,2.187-5.082S-4125.273,1205.989-4125.273,1205.989Z" transform="translate(4132.443 -1164.13)" fill="#fff"/>
          <path id="Path_384" data-name="Path 384" d="M-4124.968,1229.745s126.736-50.026,133.564-52.409,14.135-4.606,14.452,0-1.112,7.782-5.241,10.169-142.775,44.627-142.775,44.627S-4126.45,1230.33-4124.968,1229.745Z" transform="translate(4133.081 -1163.146)" fill="#f7aa3e"/>
        </g>
        <g id="Group_2861" data-name="Group 2861" transform="translate(302.001 4814.522)">
          <g id="Group_919" data-name="Group 919" transform="translate(0 13.261)">
            <path id="Path_377" data-name="Path 377" d="M-3030.393,1758.354s-2.965-.318-3.07-4.235,5.506-3.282,5.506-3.282l33.563-.038s4.341-.318,4.341,3.778-3.176,3.778-3.176,3.778V1809.6l44.045,76.443s4.341,9.952-6.988,10.058-107.889,0-107.889,0-14.928,1.376-10.058-10.376,43.727-75.6,43.727-75.6Z" transform="translate(3075.097 -1750.793)" fill="#fff"/>
            <g id="Group_214" data-name="Group 214" transform="translate(3.974 75.809)">
              <path id="Path_378" data-name="Path 378" d="M-2940.433,2225.678c-.635-1.271-14.928-25.411-14.928-25.411h-12.492a1.9,1.9,0,0,0,.036-.37,1.882,1.882,0,0,0-1.882-1.883,1.883,1.883,0,0,0-1.883,1.883,1.886,1.886,0,0,0,.037.37h-19.988a5.242,5.242,0,0,0-5.122-4.129,5.242,5.242,0,0,0-5.122,4.129h-8.119a2.639,2.639,0,0,0,.027-.356,2.6,2.6,0,0,0-2.6-2.6,2.6,2.6,0,0,0-2.6,2.6,2.639,2.639,0,0,0,.027.356h-27.835s-11.594,19.217-14.77,25.411,3.97,5.4,3.97,5.4h109.424C-2937.1,2231.078-2939.8,2226.949-2940.433,2225.678Z" transform="translate(3058.453 -2165.604)" fill="#f7aa3e"/>
              <path id="Path_379" data-name="Path 379" d="M-2907.545,2189.189a3.176,3.176,0,0,0,3.176-3.176,3.176,3.176,0,0,0-3.176-3.176,3.176,3.176,0,0,0-3.176,3.176A3.176,3.176,0,0,0-2907.545,2189.189Z" transform="translate(2945.999 -2155.479)" fill="#f7aa3e"/>
              <path id="Path_380" data-name="Path 380" d="M-2857.02,2153.279a3.954,3.954,0,0,0,3.953-3.954,3.953,3.953,0,0,0-3.953-3.954,3.954,3.954,0,0,0-3.954,3.954A3.954,3.954,0,0,0-2857.02,2153.279Z" transform="translate(2908.13 -2126.96)" fill="#f7aa3e"/>
              <circle id="Ellipse_304" data-name="Ellipse 304" cx="3.375" cy="3.375" r="3.375" transform="translate(74.003 27.16)" fill="#f7aa3e"/>
              <circle id="Ellipse_305" data-name="Ellipse 305" cx="3.427" cy="3.427" r="3.427" transform="translate(66.986 11.821)" fill="#f7aa3e"/>
              <path id="Path_382" data-name="Path 382" d="M-2838.717,2094.3a5.7,5.7,0,0,0,5.7-5.7,5.7,5.7,0,0,0-5.7-5.7,5.7,5.7,0,0,0-5.7,5.7A5.7,5.7,0,0,0-2838.717,2094.3Z" transform="translate(2895.527 -2082.897)" fill="#f7aa3e"/>
            </g>
          </g>
          <path id="Path_1700" data-name="Path 1700" d="M-2816.807,1791.769s5.311,11.106,6.02,14.665-.236,9.824-6.02,9.682-6.963-6.692-6.374-8.97S-2816.807,1791.769-2816.807,1791.769Z" transform="translate(2882.553 -1791.769)" fill="#f7aa3e"/>
        </g>
      </g>
    </g>
    <g id="Group_3224" data-name="Group 3224" transform="translate(-806 390)">
      <circle id="Ellipse_299-3" data-name="Ellipse 299" cx="143" cy="143" r="143" transform="translate(1422 4703)" fill="#ef6624"/>
      <g id="Group_3223" data-name="Group 3223">
        <g id="Group_2865" data-name="Group 2865">
          <g id="Group_575" data-name="Group 575" transform="translate(897.589 4672.88)">
            <g id="Group_564" data-name="Group 564" transform="translate(663.591 144.648)">
              <path id="Path_1367" data-name="Path 1367" d="M740.816,303.353a6.757,6.757,0,0,1-4.777-11.534C749.8,278.055,749.8,258.7,747.969,245.4c-3.417-24.787-26.383-35.7-26.675-35.865a6.757,6.757,0,0,1,6.614-11.784c1.434.8,29.125,14.438,33.448,45.8,2.441,17.708,1.153,40.9-15.762,57.817A6.735,6.735,0,0,1,740.816,303.353Z" transform="translate(-717.843 -196.887)" fill="#fff"/>
            </g>
            <g id="Group_567" data-name="Group 567" transform="translate(644.527 239.265)">
              <rect id="Rectangle_374" data-name="Rectangle 374" width="66.799" height="38.264" transform="translate(6.423)" fill="#f7aa3e"/>
              <rect id="Rectangle_375" data-name="Rectangle 375" width="33.235" height="38.264" transform="translate(0)" fill="#f7aa3e"/>
            </g>
            <g id="Group_870" data-name="Group 870" transform="matrix(0.951, 0.309, -0.309, 0.951, 644.026, 64.382)">
              <g id="Group_565" data-name="Group 565" transform="translate(9.703 22.483)">
                <rect id="Rectangle_370" data-name="Rectangle 370" width="34.878" height="83.091" fill="#fde0b6"/>
                <rect id="Rectangle_371" data-name="Rectangle 371" width="18.189" height="83.091" fill="#fde0b6"/>
              </g>
              <g id="Group_566" data-name="Group 566" transform="translate(13.706 3.109)">
                <rect id="Rectangle_372" data-name="Rectangle 372" width="26.872" height="18.861" transform="translate(0 0)" fill="#fde0b6"/>
                <rect id="Rectangle_373" data-name="Rectangle 373" width="11.772" height="18.861" transform="translate(0 0)" fill="#fde0b6"/>
              </g>
              <g id="Group_568" data-name="Group 568" transform="translate(6.796 105.949)">
                <rect id="Rectangle_376" data-name="Rectangle 376" width="40.691" height="18.861" transform="translate(0 0)" fill="#fde0b6"/>
                <rect id="Rectangle_377" data-name="Rectangle 377" width="17.825" height="18.861" transform="translate(0 0)" fill="#fde0b6"/>
              </g>
              <g id="Group_569" data-name="Group 569" transform="translate(5.77 18.38)">
                <path id="Path_1368" data-name="Path 1368" d="M39.152,7.181H3.59A3.59,3.59,0,0,1,3.59,0H39.152a3.59,3.59,0,0,1,0,7.181Z" transform="translate(0 0)" fill="#fff"/>
              </g>
              <g id="Group_570" data-name="Group 570" transform="translate(1.282 100.445)">
                <path id="Path_1369" data-name="Path 1369" d="M47.1,9.232H4.616A4.616,4.616,0,1,1,4.616,0H47.1a4.616,4.616,0,1,1,0,9.232Z" fill="#fff"/>
              </g>
              <g id="Group_571" data-name="Group 571" transform="translate(0 120.014)">
                <path id="Path_1370" data-name="Path 1370" d="M48.384,11.8H5.9A5.9,5.9,0,1,1,5.9,0H48.384a5.9,5.9,0,1,1,0,11.8Z" fill="#fff"/>
              </g>
              <g id="Group_572" data-name="Group 572" transform="translate(7.052 0)">
                <path id="Path_1371" data-name="Path 1371" d="M37.87,4.616H2.308A2.308,2.308,0,0,1,2.308,0H37.87a2.308,2.308,0,1,1,0,4.616Z" fill="#fff"/>
              </g>
            </g>
            <g id="Group_573" data-name="Group 573" transform="translate(649.473 132.815)">
              <path id="Path_1372" data-name="Path 1372" d="M719.214,192.415a14.1,14.1,0,0,0-7.865-12.65V178.31h-4.134l-3.224.07a6.793,6.793,0,0,0-.731.05,14.106,14.106,0,0,0,0,27.968,6.786,6.786,0,0,0,.731.051l3.224.07h4.134v-1.455A14.1,14.1,0,0,0,719.214,192.415Z" transform="translate(-691.004 -176.249)" fill="#f7aa3e"/>
              <circle id="Ellipse_644" data-name="Ellipse 644" cx="14.105" cy="14.105" r="14.105" transform="translate(4.179 27.852) rotate(-80.86)" fill="#fde0b6"/>
              <circle id="Ellipse_645" data-name="Ellipse 645" cx="8.819" cy="8.819" r="8.819" transform="matrix(0.228, -0.974, 0.974, 0.228, 9.748, 22.741)" fill="#fff"/>
            </g>
            <g id="Group_574" data-name="Group 574" transform="translate(603.397 245.677)">
              <rect id="Rectangle_378" data-name="Rectangle 378" width="62.929" height="7.443" transform="translate(35.904)" fill="#fff"/>
              <rect id="Rectangle_379" data-name="Rectangle 379" width="62.929" height="7.443" fill="#fff"/>
            </g>
          </g>
        </g>
        <g id="Mask_Group_522" data-name="Mask Group 522" transform="translate(-8533 -20)" clip-path="url(#clip-path-3)">
          <path id="Path_1656" data-name="Path 1656" d="M-1707.975,3063.614c-.114,14.13-8.917,22.786-23.078,22.8s-18.992-7.779-24.394-22.8h-4.539c.295,15.389,13.423,28.477,28.878,28.459s28.655-13.072,28.916-28.462Z" transform="translate(11786.384 1844.427)" fill="#f7aa3e"/>
          <path id="Path_1651" data-name="Path 1651" d="M-1747.1,3063.623a24.723,24.723,0,0,0,24.726,23.979,24.723,24.723,0,0,0,24.726-23.979Z" transform="translate(11777.483 1844.416)" fill="#fff"/>
          <path id="Path_1652" data-name="Path 1652" d="M-1722.135,3063.624h18.172s1.073-.047.35.84-13.017,12.76-13.017,12.76a1.181,1.181,0,0,1-1.749-.326,22.337,22.337,0,0,1-3.523-5.622,22.6,22.6,0,0,1-1.259-6.321C-1723.091,3064.16-1722.9,3063.624-1722.135,3063.624Z" transform="translate(11756.19 1845.377)" fill="#ffc211"/>
          <path id="Path_1653" data-name="Path 1653" d="M-1659.635,3087.164l13.04-12.409s.736-.764.854.335-.184,17.6-.184,17.6-.084,1.1-1.49.972a23.651,23.651,0,0,1-6.562-1.434,23.029,23.029,0,0,1-5.441-3.457C-1659.936,3088.183-1660.188,3087.689-1659.635,3087.164Z" transform="translate(11699.947 1836.396)" fill="#ffc211"/>
          <path id="Path_1654" data-name="Path 1654" d="M-1489.58,3063.624h-18.577s-1.1-.048-.358.858,13.307,13.044,13.307,13.044a1.207,1.207,0,0,0,1.789-.333,22.828,22.828,0,0,0,3.6-5.747,23.115,23.115,0,0,0,1.288-6.462C-1488.6,3064.172-1488.793,3063.624-1489.58,3063.624Z" transform="translate(11565.983 1845.377)" fill="#ffc211"/>
          <path id="Path_1655" data-name="Path 1655" d="M-1503.144,3087.164l-13.03-12.409s-.736-.764-.853.335.184,17.6.184,17.6.084,1.1,1.489.972a23.589,23.589,0,0,0,6.557-1.434,23.013,23.013,0,0,0,5.436-3.456C-1502.843,3088.184-1502.592,3087.69-1503.144,3087.164Z" transform="translate(11572.854 1836.396)" fill="#ffc211"/>
        </g>
      </g>
    </g>
    <g id="Group_3225" data-name="Group 3225" transform="translate(-806 390)">
      <circle id="Ellipse_299-4" data-name="Ellipse 299" cx="143" cy="143" r="143" transform="translate(1019 4703)" fill="#ef6624"/>
      <g id="Group_2977" data-name="Group 2977" transform="translate(918.137 4744.246)">
        <g id="Group_879" data-name="Group 879" transform="translate(143.706 85.653)">
          <path id="Path_1665" data-name="Path 1665" d="M224.8,161.094V149.9l-9.778-1.083a27.18,27.18,0,0,0-3.047-7.332l6.155-7.688-7.919-7.919-7.7,6.162A27.175,27.175,0,0,0,195.191,129l-1.085-9.8h-11.2l-1.085,9.8a27.186,27.186,0,0,0-7.322,3.032l-7.7-6.162-7.919,7.919,6.155,7.688a27.2,27.2,0,0,0-3.047,7.332l-9.778,1.083v11.2l9.764,1.081a27.16,27.16,0,0,0,3.042,7.358l-6.136,7.664,7.919,7.919,7.656-6.129a27.167,27.167,0,0,0,7.368,3.057l1.079,9.742h11.2l1.079-9.742a27.168,27.168,0,0,0,7.368-3.057l7.657,6.129,7.919-7.919-6.136-7.664a27.188,27.188,0,0,0,3.043-7.358Zm-36.292,8.516a14.087,14.087,0,1,1,14.087-14.087A14.086,14.086,0,0,1,188.506,169.611Z" transform="translate(-152.214 -119.203)" fill="#fff"/>
          <circle id="Ellipse_654" data-name="Ellipse 654" cx="19.052" cy="19.052" r="19.052" transform="translate(17.24 17.268)" fill="none" stroke="#fff" stroke-miterlimit="10" stroke-width="1.234"/>
          <path id="Path_1666" data-name="Path 1666" d="M193.047,141.019A19.052,19.052,0,1,0,212.1,160.071,19.052,19.052,0,0,0,193.047,141.019Zm0,33.139a14.087,14.087,0,1,1,14.087-14.087A14.087,14.087,0,0,1,193.047,174.158Z" transform="translate(-156.755 -123.751)" fill="#f7aa3e"/>
        </g>
        <g id="Group_881" data-name="Group 881" transform="translate(270.54 119.602)">
          <path id="Path_1669" data-name="Path 1669" d="M349.7,180.7v-8.876l-7.75-.858a21.56,21.56,0,0,0-2.416-5.812l4.879-6.094-6.277-6.277-6.1,4.884a21.542,21.542,0,0,0-5.8-2.4l-.86-7.767h-8.876l-.86,7.768a21.54,21.54,0,0,0-5.8,2.4l-6.1-4.884-6.277,6.277,4.879,6.094a21.556,21.556,0,0,0-2.416,5.812l-7.75.858V180.7l7.739.857a21.548,21.548,0,0,0,2.411,5.833l-4.864,6.075,6.277,6.276,6.068-4.858a21.511,21.511,0,0,0,5.841,2.424l.855,7.722h8.876l.855-7.722a21.531,21.531,0,0,0,5.84-2.423l6.069,4.858,6.277-6.276-4.863-6.075a21.549,21.549,0,0,0,2.411-5.833Zm-28.766,6.75A11.166,11.166,0,1,1,332.1,176.285,11.166,11.166,0,0,1,320.93,187.451Z" transform="translate(-292.164 -147.497)" fill="#fff"/>
          <path id="Path_1670" data-name="Path 1670" d="M326.09,166.352a15.1,15.1,0,1,0,15.1,15.1A15.1,15.1,0,0,0,326.09,166.352Zm0,26.267a11.166,11.166,0,1,1,11.166-11.166A11.166,11.166,0,0,1,326.09,192.619Z" transform="translate(-297.324 -152.665)" fill="#f7aa3e"/>
        </g>
        <path id="Path_1671" data-name="Path 1671" d="M231.33,104.595l-.034.522C231.211,104.831,231.244,104.676,231.33,104.595Z" transform="translate(-19.973 -13.467)" fill="#8c5930"/>
        <g id="Group_882" data-name="Group 882" transform="translate(193.771 23.881)">
          <path id="Path_1673" data-name="Path 1673" d="M330.424,99.064l-14.317-1.586a39.791,39.791,0,0,0-4.462-10.736l9.013-11.257L309.062,63.89l-11.27,9.022a39.813,39.813,0,0,0-10.72-4.44l-1.589-14.349h-16.4L267.5,68.472a39.825,39.825,0,0,0-10.72,4.44L245.508,63.89,233.913,75.485l9.012,11.257a39.789,39.789,0,0,0-4.462,10.736l-14.316,1.586v16.4l14.3,1.584a39.784,39.784,0,0,0,4.455,10.774l-8.984,11.222,11.595,11.594,11.21-8.974a39.793,39.793,0,0,0,10.789,4.477l1.58,14.264h16.4l1.58-14.264a39.782,39.782,0,0,0,10.789-4.477l11.211,8.974,11.595-11.594-8.984-11.222a39.848,39.848,0,0,0,4.455-10.774l14.3-1.584Zm-3.354,13.395-13.63,1.51-.565,2.263A36.4,36.4,0,0,1,308.8,126.1l-1.195,2,8.563,10.7-7.349,7.35-10.687-8.557-2,1.2a36.389,36.389,0,0,1-9.879,4.1l-2.26.567-1.507,13.6H272.088l-1.506-13.6-2.26-.567a36.418,36.418,0,0,1-9.88-4.1l-2-1.2-10.688,8.557-7.349-7.35,8.564-10.7-1.195-2a36.418,36.418,0,0,1-4.08-9.866l-.565-2.263-13.63-1.51V102.066l13.645-1.512.57-2.256a36.46,36.46,0,0,1,4.087-9.833l1.2-2-8.594-10.734,7.349-7.35,10.744,8.6,2-1.195a36.435,36.435,0,0,1,9.818-4.066l2.259-.568,1.515-13.679h10.392L284,71.156l2.259.568a36.46,36.46,0,0,1,9.818,4.066l2,1.195,10.742-8.6,7.349,7.35-8.592,10.733,1.2,2a36.446,36.446,0,0,1,4.086,9.832l.569,2.257,13.646,1.512Z" transform="translate(-224.146 -45.294)" fill="none"/>
          <g id="Group_2864" data-name="Group 2864" transform="translate(7.567 0)">
            <path id="Path_1672" data-name="Path 1672" d="M330.424,115.461v-16.4l-14.317-1.586a39.791,39.791,0,0,0-4.462-10.736l9.013-11.257L309.062,63.89l-11.27,9.022a39.813,39.813,0,0,0-10.72-4.44l-1.589-14.349h-16.4L267.5,68.473a39.792,39.792,0,0,0-10.72,4.439l-11.27-9.022L233.912,75.485l9.013,11.257a39.789,39.789,0,0,0-4.462,10.736l-14.316,1.586v16.4l14.3,1.584a39.766,39.766,0,0,0,4.455,10.773l-8.985,11.223,11.595,11.594,11.211-8.974a39.793,39.793,0,0,0,10.789,4.477l1.58,14.264h16.4l1.58-14.264a39.782,39.782,0,0,0,10.789-4.477l11.211,8.974,11.595-11.594-8.984-11.223a39.83,39.83,0,0,0,4.455-10.773Zm-53.139,12.468A20.626,20.626,0,1,1,297.91,107.3,20.625,20.625,0,0,1,277.284,127.929Z" transform="translate(-224.146 -54.123)" fill="#fff"/>
            <path id="Path_1674" data-name="Path 1674" d="M278.391,80.516a27.9,27.9,0,1,0,27.9,27.9A27.9,27.9,0,0,0,278.391,80.516Zm0,48.522a20.626,20.626,0,1,1,20.627-20.626A20.625,20.625,0,0,1,278.391,129.038Z" transform="translate(-225.253 -55.232)" fill="#f7aa3e"/>
          </g>
        </g>
      </g>
    </g>
  </g>
</svg>
