<svg xmlns="http://www.w3.org/2000/svg" xmlns:xlink="http://www.w3.org/1999/xlink" width="601" height="301" viewBox="0 0 601 301">
  <defs>
    <clipPath id="clip-path">
      <rect id="Rectangle_831" data-name="Rectangle 831" width="601" height="301" transform="translate(5675 8860)" fill="#fff"/>
    </clipPath>
    <radialGradient id="radial-gradient" cx="-8.211" cy="-17.393" r="0.003" gradientTransform="translate(0.318) scale(0.364 1)" gradientUnits="objectBoundingBox">
      <stop offset="0.589" stop-color="#fff" stop-opacity="0"/>
      <stop offset="0.966" stop-color="#6e7797" stop-opacity="0.02"/>
      <stop offset="1" stop-color="#212e60" stop-opacity="0.031"/>
    </radialGradient>
    <linearGradient id="linear-gradient" x1="0.257" y1="0.11" x2="0.786" y2="0.959" gradientUnits="objectBoundingBox">
      <stop offset="0" stop-color="#f16421"/>
      <stop offset="0.276" stop-color="#f36a24"/>
      <stop offset="0.675" stop-color="#f87e2e"/>
      <stop offset="1" stop-color="#ff933a"/>
    </linearGradient>
    <radialGradient id="radial-gradient-2" cx="-4.26" cy="-8.856" r="0.002" gradientTransform="translate(0.344) scale(0.312 1)" xlink:href="#radial-gradient"/>
    <radialGradient id="radial-gradient-3" cx="-6.111" cy="-14.382" r="0.004" gradientTransform="translate(0.375) scale(0.25 1)" xlink:href="#radial-gradient"/>
    <radialGradient id="radial-gradient-4" cx="-4.832" cy="-12.945" r="0.004" gradientTransform="translate(0.383) scale(0.234 1)" xlink:href="#radial-gradient"/>
    <radialGradient id="radial-gradient-5" cx="-4.307" cy="-13.509" r="0.004" gradientTransform="translate(0.383) scale(0.234 1)" xlink:href="#radial-gradient"/>
    <radialGradient id="radial-gradient-6" cx="-6.893" cy="-19.354" r="0.007" gradientTransform="translate(0.396) scale(0.207 1)" xlink:href="#radial-gradient"/>
  </defs>
  <g id="Mask_Group_525" data-name="Mask Group 525" transform="translate(-5675 -8860)" clip-path="url(#clip-path)">
    <g id="get_in_touch" data-name="get in touch" transform="translate(5015 -3832)">
      <g id="Group_915" data-name="Group 915" transform="translate(659.729 12691.89)">
        <g id="outline" transform="translate(15.929 398.094)">
          <path id="Path_347" data-name="Path 347" d="M470.3,1119.668c-11.407,7.921-39.422-.71-37.018-6.252C437.913,1102.934,481.706,1111.749,470.3,1119.668Zm21.658-16.328c4.232-6.143,29.677-1.633,28.191,2.3-1.514,3.866-32.048,3.264-28.192-2.3ZM776.872,1183.6c8.428-9.459,53.579,8.592,51.211,19.361s-59.64-9.9-51.212-19.361Zm-209.219-72.286c-113.247-22.374-176.035-43.739-202.307-53.98a299.027,299.027,0,0,0,42.793,82.039c48.13.751,94.806-41.889,224.116-1.931A860.279,860.279,0,0,1,809.51,1215.5,294.818,294.818,0,0,0,838,1195.3c-47.555-19.888-154.066-61.034-270.346-83.988Z" transform="translate(-365.346 -1057.331)" fill="#ef4316" opacity="0.21" style="isolation: isolate"/>
          <path id="Path_351" data-name="Path 351" d="M614.871,1181.737c12.143-12.319,17.745-5.334,20.549,1.1S611.086,1185.579,614.871,1181.737Z" transform="translate(-364.673 -1057.013)" fill="#690058" opacity="0.1" style="isolation: isolate"/>
          <g id="Group_199" data-name="Group 199" transform="translate(70.236 79.333)">
            <path id="Path_358" data-name="Path 358" d="M742.062,1246.636c-1.691.58-3.284,1.11-4.973,1.593-4.732-5.939-8.5-12.6-12.119-19.119-.916-1.642-1.883-3.283-2.8-4.924-18.539-32.2-42.244-55.812-68.6-68.362-30.367-14.388-65.272-15.3-98.488-14.194-39.156,1.353-83.619,6.133-116.787,31.188l-2.9-3.814c34.182-25.926,79.614-30.8,119.539-32.2,33.8-1.158,69.425-.194,100.709,14.677,27.229,12.939,51.707,37.271,70.729,70.295.916,1.639,1.882,3.331,2.8,4.971C733.034,1233.6,736.993,1240.65,742.062,1246.636Z" transform="translate(-435.393 -1136.451)" fill="url(#radial-gradient)"/>
          </g>
        </g>
        <g id="outline-2" data-name="outline" transform="translate(0)">
          <circle id="Ellipse_663" data-name="Ellipse 663" cx="300.164" cy="300.164" r="300.164" transform="translate(0.317)" fill="url(#linear-gradient)"/>
          <path id="Path_345" data-name="Path 345" d="M943.588,1024.986S805.515,1035.652,777.182,985.4c-28.271-50.275-57.063-62.863-102.117-57.548-45.011,5.331-101.7,41.552-156.4,26.912-54.681-14.686-158.674-71.913-158.674-71.913-8.953,27.636-10.532,79.325-10.532,79.325s24.382,86.639,92.946,91.914,222.925,29.208,324.387,59c101.434,29.728,129.18,20.915,129.18,20.915C934.971,1079.588,943.588,1024.986,943.588,1024.986Zm-493.761,2.647c-7.135-17.717,38.466-19.833,47.4-7.009,8.889,12.806-32.327,44.553-47.4,7.009ZM643.008,946.7c42.708-17.4,117.773,13.815,110.64,41.831s-143.641-28.4-110.639-41.831ZM729,1090.184c-1.21-24.922,29.118-8.76,36.226,4.252s-35.268,15.879-36.226-4.252Zm132.661-.582c.81-13.474,19.944-13.984,19.629.5-.333,14.533-20.008,6.371-19.629-.5Z" transform="translate(-349.46 -659.709)" fill="#974d8b" opacity="0.1" style="isolation: isolate"/>
          <path id="Path_346" data-name="Path 346" d="M950.245,969.919s-98.975-62.038-177.262-77.908c-78.349-15.838-164.857,33.316-265.03,16.089-51.856-8.92-100.13-37.958-134.563-63.88a301.908,301.908,0,0,1,30.173-54.555c18.265,18.311,68.8,65.959,116.029,83.144,59,21.429,113.386-1.882,212.748,3.837,85.063,4.907,189.473,56.252,217.648,70.877C950.381,954.951,950.451,962.41,950.245,969.919Z" transform="translate(-349.395 -659.961)" fill="url(#radial-gradient-2)"/>
          <path id="Path_353" data-name="Path 353" d="M608.223,742.381c1.441,6.253,12.345,7.418,11.655.3S605.778,731.78,608.223,742.381Z" transform="translate(-348.762 -660.106)" fill="#690058" opacity="0.1" style="isolation: isolate"/>
          <g id="Group_197" data-name="Group 197" transform="translate(72.262 45.246)">
            <path id="Path_355" data-name="Path 355" d="M499.509,713.4c-3.716-1.64-7.435-3.283-11.2-4.876,1.69-1.111,3.332-2.124,5.021-3.089,2.7,1.158,5.408,2.316,8.111,3.523l5.89,2.607a936.184,936.184,0,0,0,263.653,71.791c9.945,1.207,19.939,2.269,29.933,3.283,24.139,2.511,49.147,5.119,73.383,9.994a311.19,311.19,0,0,1,31.092,7.869c1.255,2.077,2.511,4.152,3.718,6.278a310.35,310.35,0,0,0-35.774-9.416c-24.044-4.826-48.859-7.433-72.9-9.9-10.041-1.063-20.034-2.077-30.029-3.283a941,941,0,0,1-265-72.227Z" transform="translate(-421.347 -705.434)" fill="url(#radial-gradient-3)"/>
            <path id="Path_356" data-name="Path 356" d="M939.9,884.056c-23.8-1.593-46.735-9.8-68.992-17.814-4.442-1.594-8.883-3.188-13.325-4.732C797.476,840.6,739.106,831,684.02,832.832c-11.974.433-24.14,1.4-35.92,2.317-18.25,1.5-37.079,2.993-55.715,2.463A262.073,262.073,0,0,1,438.568,781.8a155.333,155.333,0,0,1-17.041-15.4c1.013-1.256,2.075-2.511,3.187-3.718a148.583,148.583,0,0,0,16.849,15.352,257.251,257.251,0,0,0,150.97,54.748c18.345.531,37.078-.966,55.183-2.414,11.828-.966,24.091-1.93,36.161-2.316,55.618-1.931,114.614,7.82,175.3,28.871,4.443,1.544,8.884,3.137,13.375,4.78,21.436,7.675,43.451,15.594,66,17.475C939.029,880.822,939.464,882.462,939.9,884.056Z" transform="translate(-421.527 -705.279)" fill="url(#radial-gradient-4)"/>
          </g>
          <g id="Group_198" data-name="Group 198" transform="translate(0.567 317.004)">
            <path id="Path_357" data-name="Path 357" d="M914.938,1102.714c-.868,1.69-1.786,3.378-2.752,5.021-3.235.241-6.47.481-9.656.627-23.415,1.013-54.7-2.512-71.018-25.155a106.959,106.959,0,0,1-8.4-15.064c-4.393-9.124-8.545-17.718-16.559-22.352-6.518-3.718-14.292-3.814-19.651-3.187-13.083,1.5-24.67,7.677-36.932,14.193-9.9,5.263-20.085,10.719-31.142,13.47-16.608,4.105-34.277,1.931-49.92,0l-1.786-.24q-53.373-6.591-106.746-13.373c-6.372-.821-13.614-1.739-19.7-5.5-5.842-3.573-11.153-11.1-9.028-19.07,1.158-4.3,4.055-7.387,6.857-10.38a33.645,33.645,0,0,0,4.683-5.7c4.345-7.339,1.158-17.139-4.056-22.595-5.118-5.408-12.987-9.028-23.415-10.814-22.207-3.766-45.093,1.3-67.2,6.181-19.36,4.3-39.4,8.737-59.528,7.482a106.716,106.716,0,0,1-38.527-10.089c-.193-1.835-.29-3.718-.435-5.553a102.335,102.335,0,0,0,39.3,10.815c19.408,1.255,39.105-3.138,58.176-7.339,22.546-5.021,45.866-10.188,68.991-6.228,11.49,1.93,20.278,6.083,26.118,12.214,6.616,6.9,10.334,18.879,4.732,28.389a39.1,39.1,0,0,1-5.31,6.517c-2.51,2.7-4.876,5.215-5.7,8.3-1.449,5.359,2.414,10.958,6.9,13.76,5.213,3.234,11.877,4.1,17.719,4.828q53.371,6.878,106.793,13.372l1.738.242c15.935,1.98,32.443,4.007,48.183.1,10.476-2.608,20.421-7.919,30.03-13.036,12.117-6.469,24.669-13.131,38.671-14.726,8.738-1.013,16.512.291,22.595,3.815,9.317,5.36,14,15.016,18.539,24.381a95.5,95.5,0,0,0,7.917,14.339c15.064,20.954,44.706,24.139,66.866,23.174C906.489,1103.34,910.738,1103.052,914.938,1102.714Z" transform="translate(-350.025 -976.46)" fill="url(#radial-gradient-5)"/>
          </g>
          <g id="Group_200" data-name="Group 200" transform="translate(158.246 34.866)">
            <path id="Path_359" data-name="Path 359" d="M882.938,772.955c-2.7-.53-5.408-1.062-8.013-1.592a493.352,493.352,0,0,0-105.151-10.043c-4.248.049-8.449.1-12.457-1.5-8.739-3.428-11.974-12.215-15.063-20.711a69.648,69.648,0,0,0-4.588-10.719c-7.675-13.518-24.284-18.153-37.174-17.959-12.84.145-25.539,4.151-37.85,7.965l-6.082,1.884c-34.038,10.331-61.461,13.42-86.324,9.751C544.6,726.174,522.1,714.345,507.28,697.4c1.5-.774,2.946-1.594,4.442-2.317,14,15.643,35.147,26.6,59.192,30.173,24.139,3.573,50.932.531,84.245-9.561l6.033-1.883c12.65-3.958,25.685-8.014,39.251-8.206,14.242-.193,32.735,5.07,41.425,20.374a80.375,80.375,0,0,1,4.924,11.441c2.847,7.871,5.6,15.257,12.31,17.912,3.09,1.255,6.855,1.207,10.427,1.158A496.922,496.922,0,0,1,875.887,766.63l2.173.433C879.751,769,881.393,770.975,882.938,772.955Z" transform="translate(-507.28 -695.082)" fill="url(#radial-gradient-6)"/>
          </g>
          <g id="Group_903" data-name="Group 903" transform="translate(292.309 106.935)">
            <circle id="Ellipse_664" data-name="Ellipse 664" cx="7.004" cy="7.004" r="7.004" transform="translate(111.027 175.259)" fill="#ff7a40"/>
            <circle id="Ellipse_665" data-name="Ellipse 665" cx="4.654" cy="4.654" r="4.654" transform="translate(235.076 85.74)" fill="#ff7a40"/>
            <circle id="Ellipse_666" data-name="Ellipse 666" cx="2.566" cy="2.566" r="2.566" transform="translate(204.846 55.119)" fill="#ff7a40"/>
            <circle id="Ellipse_667" data-name="Ellipse 667" cx="1.982" cy="1.982" r="1.982" transform="translate(195.59)" fill="#ff7a40"/>
            <circle id="Ellipse_668" data-name="Ellipse 668" cx="1.865" cy="1.865" r="1.865" transform="translate(174.094 1.403)" fill="#ff7a40"/>
            <circle id="Ellipse_669" data-name="Ellipse 669" cx="3.154" cy="3.154" r="3.154" transform="translate(236.9 129.949)" fill="#ff7a40"/>
            <circle id="Ellipse_670" data-name="Ellipse 670" cx="3.154" cy="3.154" r="3.154" transform="translate(119.707 129.949)" fill="#ff7a40"/>
            <circle id="Ellipse_671" data-name="Ellipse 671" cx="3.154" cy="3.154" r="3.154" transform="translate(128.177 90.394)" fill="#ff7a40"/>
            <circle id="Ellipse_672" data-name="Ellipse 672" cx="2.022" cy="2.022" r="2.022" transform="translate(152.001 40.901)" fill="#ff7a40"/>
            <circle id="Ellipse_673" data-name="Ellipse 673" cx="7.004" cy="7.004" r="7.004" transform="translate(171.452 132.253)" fill="#ff7a40"/>
            <circle id="Ellipse_674" data-name="Ellipse 674" cx="6.258" cy="6.258" r="6.258" transform="translate(239.47 241.246)" fill="#ff7a40"/>
            <circle id="Ellipse_675" data-name="Ellipse 675" cx="6.258" cy="6.258" r="6.258" transform="translate(204.024 328.586)" fill="#ff7a40"/>
            <circle id="Ellipse_676" data-name="Ellipse 676" cx="2.28" cy="2.28" r="2.28" transform="translate(44.173 456.415)" fill="#ff7a40"/>
            <circle id="Ellipse_677" data-name="Ellipse 677" cx="2.28" cy="2.28" r="2.28" transform="translate(0 462.376)" fill="#ff7a40"/>
            <circle id="Ellipse_678" data-name="Ellipse 678" cx="6.258" cy="6.258" r="6.258" transform="translate(105.515 398.951)" fill="#ff7a40"/>
            <circle id="Ellipse_679" data-name="Ellipse 679" cx="5.342" cy="5.342" r="5.342" transform="translate(145.908 286.116)" fill="#ff7a40"/>
            <circle id="Ellipse_680" data-name="Ellipse 680" cx="2.646" cy="2.646" r="2.646" transform="translate(213.438 284.357)" fill="#ff7a40"/>
            <circle id="Ellipse_681" data-name="Ellipse 681" cx="2.646" cy="2.646" r="2.646" transform="translate(204.989 222.82)" fill="#ff7a40"/>
            <circle id="Ellipse_682" data-name="Ellipse 682" cx="4.638" cy="4.638" r="4.638" transform="translate(217.442 183.97)" fill="#ff7a40"/>
            <circle id="Ellipse_683" data-name="Ellipse 683" cx="4.559" cy="4.559" r="4.559" transform="translate(38.734 413.324)" fill="#ff7a40"/>
            <circle id="Ellipse_684" data-name="Ellipse 684" cx="3.452" cy="3.452" r="3.452" transform="translate(157.711 365.472)" fill="#ff7a40"/>
          </g>
          <path id="Path_1697" data-name="Path 1697" d="M874.124,1159.4c-110.248,124.988-300.13,137.21-424.387,27.451-5.649-4.99-10.957-10.363-15.932-15.443,124.078,94.547,284.016-5.02,351.861-81.935s154.861-257.318,45.71-368.789c5.653,4.313,11.639,8.916,17.29,13.906C972.922,844.351,984.372,1034.415,874.124,1159.4Z" transform="translate(-349.232 -660.147)" fill="#91345c" opacity="0.17" style="mix-blend-mode: multiply;isolation: isolate"/>
        </g>
      </g>
    </g>
  </g>
</svg>
