<svg xmlns="http://www.w3.org/2000/svg" width="231.147" height="54.553" viewBox="0 0 231.147 54.553">
  <g id="Group_3218" data-name="Group 3218" transform="translate(-0.584 -805.533)">
    <g id="Group_3214" data-name="Group 3214" transform="translate(0.584 805.533)">
      <path id="Path_6553" data-name="Path 6553" d="M64.589,934.528h.133c-.089,0-.177-.006-.266-.007C64.5,934.522,64.544,934.528,64.589,934.528Z" transform="translate(-37.446 -879.975)" fill="#fff" style="mix-blend-mode: screen;isolation: isolate"/>
      <path id="Path_6554" data-name="Path 6554" d="M66.624,805.55a6.913,6.913,0,0,1,6.783,6.909V853.18a6.912,6.912,0,0,1-6.783,6.909A27.273,27.273,0,0,0,93.635,832.82h0A27.274,27.274,0,0,0,66.624,805.55Z" transform="translate(-38.697 -805.543)" fill="#fff"/>
      <path id="Path_6555" data-name="Path 6555" d="M64.589,805.534c-.045,0-.088.006-.133.007.089,0,.177-.007.266-.007Z" transform="translate(-37.446 -805.534)" fill="#fff" style="mix-blend-mode: screen;isolation: isolate"/>
      <path id="Path_6556" data-name="Path 6556" d="M20.812,853.18V812.459a6.913,6.913,0,0,1,6.783-6.909A27.273,27.273,0,0,0,.584,832.82h0a27.273,27.273,0,0,0,27.01,27.269A6.912,6.912,0,0,1,20.812,853.18Z" transform="translate(-0.584 -805.543)" fill="#fff"/>
    </g>
    <g id="Group_3216" data-name="Group 3216" transform="translate(78.029 821.168)">
      <g id="Group_3215" data-name="Group 3215" transform="translate(0 0)">
        <path id="Path_6557" data-name="Path 6557" d="M191.312,865.286a4.488,4.488,0,0,1-.192,1.361,3.967,3.967,0,0,1-.508,1.062,3.446,3.446,0,0,1-.734.779,4.262,4.262,0,0,1-.875.525,4.494,4.494,0,0,1-.926.3,4.444,4.444,0,0,1-.886.1h-5.3a4.714,4.714,0,0,1-1.333-.214,3.9,3.9,0,0,1-1.338-.706,3.943,3.943,0,0,1-1.028-1.276,4.1,4.1,0,0,1-.412-1.926v-3.975a4.074,4.074,0,0,1,.412-1.914,3.891,3.891,0,0,1,2.366-1.981,4.691,4.691,0,0,1,1.333-.215h5.3a4.16,4.16,0,0,1,1.92.406,3.824,3.824,0,0,1,1.276,1.022,4.062,4.062,0,0,1,.706,1.338,4.633,4.633,0,0,1,.22,1.344Zm-2.936-3.952a1.2,1.2,0,0,0-.3-.9,1.22,1.22,0,0,0-.881-.294h-5.274a1.221,1.221,0,0,0-.892.3,1.171,1.171,0,0,0-.305.875v3.975a1.193,1.193,0,0,0,.305.881,1.208,1.208,0,0,0,.892.305h5.274a1.186,1.186,0,0,0,.892-.305,1.22,1.22,0,0,0,.294-.881Z" transform="translate(-177.783 -852.039)" fill="#fff"/>
        <path id="Path_6558" data-name="Path 6558" d="M224.628,860.136h-6.607a1.238,1.238,0,0,0-.9.3,1.173,1.173,0,0,0-.3.875v8.1h-2.936v-8.1a4.41,4.41,0,0,1,.192-1.355,3.867,3.867,0,0,1,.514-1.056,3.563,3.563,0,0,1,.74-.779,4.282,4.282,0,0,1,.875-.525,4.512,4.512,0,0,1,.926-.3,4.371,4.371,0,0,1,.875-.1h6.629Z" transform="translate(-197.92 -852.039)" fill="#fff"/>
        <path id="Path_6559" data-name="Path 6559" d="M252.037,865.365a4.536,4.536,0,0,1-.214,1.316,3.917,3.917,0,0,1-.695,1.31A3.868,3.868,0,0,1,249.875,869a4,4,0,0,1-1.88.406h-5.3a4.542,4.542,0,0,1-1.316-.214,3.927,3.927,0,0,1-1.31-.694,3.875,3.875,0,0,1-1.011-1.253,4,4,0,0,1-.407-1.88,4.59,4.59,0,0,1,.215-1.321,3.912,3.912,0,0,1,.694-1.316,3.868,3.868,0,0,1,1.254-1.011,4,4,0,0,1,1.88-.407h5.3v2.8h-5.3a1.176,1.176,0,0,0-.926.367,1.314,1.314,0,0,0-.328.91,1.115,1.115,0,0,0,.378.9,1.343,1.343,0,0,0,.9.322h5.274a1.186,1.186,0,0,0,.926-.362,1.3,1.3,0,0,0,.328-.9v-4.1a1.205,1.205,0,0,0-.355-.915,1.253,1.253,0,0,0-.9-.339h-6.449V857.2h6.449a4.519,4.519,0,0,1,1.315.215,3.92,3.92,0,0,1,1.31.694,3.879,3.879,0,0,1,1.011,1.254,4,4,0,0,1,.406,1.88Z" transform="translate(-211.743 -852.039)" fill="#fff"/>
        <path id="Path_6560" data-name="Path 6560" d="M288.126,869.408h-2.936v-6.776a2.582,2.582,0,0,0-.2-1.033,2.408,2.408,0,0,0-.536-.785,2.336,2.336,0,0,0-.8-.5,2.753,2.753,0,0,0-.988-.175h-5.138v9.271H274.6V858.657a1.443,1.443,0,0,1,.113-.57,1.414,1.414,0,0,1,.316-.463,1.515,1.515,0,0,1,.474-.31,1.484,1.484,0,0,1,.576-.113h6.618a5.96,5.96,0,0,1,1.169.124,5.6,5.6,0,0,1,1.219.4,5.861,5.861,0,0,1,1.152.7,4.673,4.673,0,0,1,.971,1.027,5.062,5.062,0,0,1,.672,1.394,5.951,5.951,0,0,1,.248,1.784Z" transform="translate(-231.795 -852.039)" fill="#fff"/>
        <path id="Path_6561" data-name="Path 6561" d="M323.99,870.582a4.477,4.477,0,0,1-.192,1.361A3.949,3.949,0,0,1,323.29,873a3.459,3.459,0,0,1-.734.78,4.27,4.27,0,0,1-.875.525,4.507,4.507,0,0,1-.926.3,4.428,4.428,0,0,1-.886.1h-5.3v-2.936h5.3a1.186,1.186,0,0,0,.892-.3,1.221,1.221,0,0,0,.294-.881v-9.272a1.046,1.046,0,0,0-1.186-1.174h-5.3a1.127,1.127,0,0,0-.858.333,1.173,1.173,0,0,0-.316.841v3.975a1.194,1.194,0,0,0,.3.881,1.21,1.21,0,0,0,.893.305h5.274v2.936h-5.3a4.358,4.358,0,0,1-.881-.1,4.517,4.517,0,0,1-.92-.3,4.259,4.259,0,0,1-.875-.525,3.427,3.427,0,0,1-.734-.779,3.953,3.953,0,0,1-.508-1.062,4.461,4.461,0,0,1-.192-1.361v-3.975a4.332,4.332,0,0,1,.1-.881,4.538,4.538,0,0,1,.3-.92,4.3,4.3,0,0,1,.525-.875,3.464,3.464,0,0,1,.779-.734,4,4,0,0,1,1.056-.508,4.439,4.439,0,0,1,1.355-.192h5.3a4.419,4.419,0,0,1,.886.1,4.5,4.5,0,0,1,.926.3,4.282,4.282,0,0,1,.875.525,3.459,3.459,0,0,1,.734.779,3.973,3.973,0,0,1,.508,1.056,4.424,4.424,0,0,1,.192,1.355Z" transform="translate(-251.804 -852.039)" fill="#fff"/>
        <path id="Path_6562" data-name="Path 6562" d="M359.964,861.243a4.542,4.542,0,0,1-.215,1.315,3.932,3.932,0,0,1-.694,1.31,3.876,3.876,0,0,1-1.253,1.011,4,4,0,0,1-1.88.406h-5.3V862.5h5.3a1.177,1.177,0,0,0,.926-.367,1.315,1.315,0,0,0,.328-.909,1.149,1.149,0,0,0-.367-.9,1.285,1.285,0,0,0-.886-.328h-5.3a1.175,1.175,0,0,0-.926.367,1.315,1.315,0,0,0-.328.909v4.1a1.16,1.16,0,0,0,.367.914,1.315,1.315,0,0,0,.909.328h5.274v2.8h-5.3a4.543,4.543,0,0,1-1.316-.214A3.926,3.926,0,0,1,348,868.5a3.874,3.874,0,0,1-1.011-1.253,4,4,0,0,1-.406-1.88v-4.122a4.532,4.532,0,0,1,.214-1.316,3.926,3.926,0,0,1,.695-1.31,3.877,3.877,0,0,1,1.253-1.011,4,4,0,0,1,1.88-.406h5.3a4.525,4.525,0,0,1,1.316.215,3.922,3.922,0,0,1,1.31.694,3.873,3.873,0,0,1,1.011,1.254A4,4,0,0,1,359.964,861.243Z" transform="translate(-271.956 -852.039)" fill="#fff"/>
        <path id="Path_6563" data-name="Path 6563" d="M411.558,858.772a4.473,4.473,0,0,1-.192,1.361,3.967,3.967,0,0,1-.508,1.062,3.447,3.447,0,0,1-.734.779,4.255,4.255,0,0,1-.875.525,4.489,4.489,0,0,1-.926.3,4.443,4.443,0,0,1-.886.1h-5.3a4.424,4.424,0,0,1-1.355-.192,3.867,3.867,0,0,1-1.056-.514,3.563,3.563,0,0,1-.779-.74,4.291,4.291,0,0,1-.525-.875,4.523,4.523,0,0,1-.3-.926,4.4,4.4,0,0,1-.1-.876V854.8a4.079,4.079,0,0,1,.412-1.914,3.962,3.962,0,0,1,1.028-1.276,3.916,3.916,0,0,1,1.338-.705,4.687,4.687,0,0,1,1.332-.215h5.3v2.936h-5.274a1.222,1.222,0,0,0-.892.3,1.173,1.173,0,0,0-.3.875v3.952a1.24,1.24,0,0,0,.3.9,1.172,1.172,0,0,0,.875.305h5.3a1.186,1.186,0,0,0,.892-.305,1.22,1.22,0,0,0,.294-.881V845.525h2.936Z" transform="translate(-300.658 -845.525)" fill="#fff"/>
        <path id="Path_6564" data-name="Path 6564" d="M446.585,865.365a4.533,4.533,0,0,1-.214,1.316,3.918,3.918,0,0,1-.695,1.31A3.869,3.869,0,0,1,444.423,869a4,4,0,0,1-1.88.406h-5.3a4.541,4.541,0,0,1-1.316-.214,3.926,3.926,0,0,1-1.31-.694,3.875,3.875,0,0,1-1.011-1.253,4,4,0,0,1-.407-1.88,4.6,4.6,0,0,1,.214-1.321,3.924,3.924,0,0,1,.695-1.316,3.869,3.869,0,0,1,1.254-1.011,4,4,0,0,1,1.88-.407h5.3v2.8h-5.3a1.177,1.177,0,0,0-.926.367,1.316,1.316,0,0,0-.327.91,1.113,1.113,0,0,0,.378.9,1.342,1.342,0,0,0,.9.322h5.274a1.185,1.185,0,0,0,.926-.362,1.3,1.3,0,0,0,.328-.9v-4.1a1.2,1.2,0,0,0-.356-.915,1.251,1.251,0,0,0-.9-.339h-6.449V857.2h6.449a4.52,4.52,0,0,1,1.315.215,3.925,3.925,0,0,1,1.31.694,3.879,3.879,0,0,1,1.011,1.254,4,4,0,0,1,.406,1.88Z" transform="translate(-320.282 -852.039)" fill="#fff"/>
        <path id="Path_6565" data-name="Path 6565" d="M479.118,855.106H473.99v9.271h-2.97v-9.271H467.2v-2.936h3.817v-3.987h2.97v3.987h5.128Z" transform="translate(-339.25 -847.008)" fill="#fff"/>
        <path id="Path_6566" data-name="Path 6566" d="M508.557,865.365a4.535,4.535,0,0,1-.215,1.316,3.922,3.922,0,0,1-.694,1.31A3.866,3.866,0,0,1,506.395,869a4,4,0,0,1-1.88.406h-5.3a4.541,4.541,0,0,1-1.316-.214,3.929,3.929,0,0,1-1.31-.694,3.88,3.88,0,0,1-1.011-1.253,4,4,0,0,1-.406-1.88,4.588,4.588,0,0,1,.214-1.321,3.913,3.913,0,0,1,.694-1.316,3.871,3.871,0,0,1,1.253-1.011,4,4,0,0,1,1.881-.407h5.3v2.8h-5.3a1.177,1.177,0,0,0-.926.367,1.316,1.316,0,0,0-.328.91,1.113,1.113,0,0,0,.378.9,1.341,1.341,0,0,0,.9.322h5.274a1.187,1.187,0,0,0,.926-.362,1.3,1.3,0,0,0,.328-.9v-4.1a1.206,1.206,0,0,0-.356-.915,1.252,1.252,0,0,0-.9-.339h-6.449V857.2h6.449a4.522,4.522,0,0,1,1.316.215,3.922,3.922,0,0,1,1.31.694,3.868,3.868,0,0,1,1.011,1.254,3.994,3.994,0,0,1,.407,1.88Z" transform="translate(-354.856 -852.039)" fill="#fff"/>
      </g>
    </g>
  </g>
</svg>
