<svg xmlns="http://www.w3.org/2000/svg" viewBox="0 0 272.56 83.8"><defs><style>.cls-1{isolation:isolate;}.cls-2,.cls-3{fill:#fff;}.cls-3{mix-blend-mode:screen;}</style></defs><g class="cls-1"><g id="Layer_2" data-name="Layer 2"><g id="Layer_1-2" data-name="Layer 1"><path class="cls-2" d="M126,43.9a4.47,4.47,0,0,1-.2,1.42,3.81,3.81,0,0,1-.53,1.11,3.51,3.51,0,0,1-.76.82,4.87,4.87,0,0,1-.92.55,4.84,4.84,0,0,1-1.9.41h-5.54a4.93,4.93,0,0,1-1.39-.22,4.2,4.2,0,0,1-1.4-.74,4.05,4.05,0,0,1-1.07-1.33,4.28,4.28,0,0,1-.43-2V39.74a4.25,4.25,0,0,1,.43-2,4.05,4.05,0,0,1,1.07-1.33,4.2,4.2,0,0,1,1.4-.74,4.93,4.93,0,0,1,1.39-.22h5.54a4.39,4.39,0,0,1,2,.42A4,4,0,0,1,125,36.94a4.36,4.36,0,0,1,.73,1.4,4.59,4.59,0,0,1,.23,1.4Zm-3.07-4.13a1.28,1.28,0,0,0-.31-1,1.32,1.32,0,0,0-.93-.3h-5.51a1.26,1.26,0,0,0-.93.31,1.19,1.19,0,0,0-.32.91V43.9a1.12,1.12,0,0,0,1.25,1.24h5.51a1.23,1.23,0,0,0,.94-.32,1.29,1.29,0,0,0,.3-.92Z"/><path class="cls-2" d="M139.76,38.52h-6.91a1.31,1.31,0,0,0-.95.31,1.23,1.23,0,0,0-.32.91v8.47h-3.07V39.74a4.71,4.71,0,0,1,.2-1.41,4.41,4.41,0,0,1,.54-1.11,3.54,3.54,0,0,1,.78-.81,4.09,4.09,0,0,1,.91-.55,4.85,4.85,0,0,1,1.88-.41h6.94Z"/><path class="cls-2" d="M154,44a4.74,4.74,0,0,1-.23,1.38,4,4,0,0,1-.73,1.37,4.1,4.1,0,0,1-1.31,1.06,4.2,4.2,0,0,1-2,.42H144.2a4.71,4.71,0,0,1-1.38-.22,4,4,0,0,1-1.37-.73,4,4,0,0,1-1-1.31,4.1,4.1,0,0,1-.43-2,4.81,4.81,0,0,1,.22-1.38,4.22,4.22,0,0,1,.73-1.37,4,4,0,0,1,1.31-1.06,4.25,4.25,0,0,1,2-.43h5.54v2.93H144.2a1.22,1.22,0,0,0-1,.39,1.35,1.35,0,0,0-.34.95,1.19,1.19,0,0,0,.39.94,1.44,1.44,0,0,0,.94.33h5.52a1.26,1.26,0,0,0,1-.37,1.42,1.42,0,0,0,.34-.95V39.67a1.26,1.26,0,0,0-.37-1,1.3,1.3,0,0,0-.94-.36H143V35.45h6.75a4.7,4.7,0,0,1,1.37.22,4,4,0,0,1,1.37.73,4,4,0,0,1,1.06,1.31,4.2,4.2,0,0,1,.43,2Z"/><path class="cls-2" d="M170.74,48.21h-3.08V41.13a2.6,2.6,0,0,0-.2-1.08,2.7,2.7,0,0,0-.56-.83,2.58,2.58,0,0,0-.84-.52,2.86,2.86,0,0,0-1-.18h-5.37v9.69h-3.07V37a1.53,1.53,0,0,1,.12-.6,1.29,1.29,0,0,1,.33-.48,1.47,1.47,0,0,1,1.09-.44h6.92a6,6,0,0,1,1.23.13,5.53,5.53,0,0,1,1.27.41,6.33,6.33,0,0,1,1.21.74,4.69,4.69,0,0,1,1,1.07,5.36,5.36,0,0,1,.71,1.46,6.31,6.31,0,0,1,.26,1.87Z"/><path class="cls-2" d="M187.32,49.44a4.77,4.77,0,0,1-.2,1.42,4.39,4.39,0,0,1-.53,1.11,4,4,0,0,1-.77.82,4.57,4.57,0,0,1-.92.55,5,5,0,0,1-1,.31,4.31,4.31,0,0,1-.92.1h-5.54V50.68H183a1.26,1.26,0,0,0,.93-.32,1.29,1.29,0,0,0,.31-.92v-9.7A1.09,1.09,0,0,0,183,38.52h-5.54a1.18,1.18,0,0,0-.9.34,1.25,1.25,0,0,0-.33.88V43.9a1.25,1.25,0,0,0,.32.92,1.22,1.22,0,0,0,.93.32H183v3.07h-5.54a4.31,4.31,0,0,1-.92-.1,4.38,4.38,0,0,1-1-.31,4.8,4.8,0,0,1-.91-.55,3.55,3.55,0,0,1-.77-.82,3.81,3.81,0,0,1-.53-1.11,4.77,4.77,0,0,1-.2-1.42V39.74a4.38,4.38,0,0,1,.1-.92,5.1,5.1,0,0,1,.31-1,4.5,4.5,0,0,1,.55-.91,3.54,3.54,0,0,1,.82-.77,4,4,0,0,1,1.1-.53,4.47,4.47,0,0,1,1.42-.2H183a4.31,4.31,0,0,1,.92.1,4.38,4.38,0,0,1,1,.31,4.15,4.15,0,0,1,.92.55,3.72,3.72,0,0,1,.77.81,4.39,4.39,0,0,1,.53,1.11,4.71,4.71,0,0,1,.2,1.41Z"/><path class="cls-2" d="M203.86,39.67a4.71,4.71,0,0,1-.22,1.38,4,4,0,0,1-.73,1.37,4.1,4.1,0,0,1-1.31,1.06,4.2,4.2,0,0,1-2,.42H194.1V41h5.54a1.19,1.19,0,0,0,1-.38,1.38,1.38,0,0,0,.35-1,1.17,1.17,0,0,0-.39-.94,1.32,1.32,0,0,0-.92-.35H194.1a1.22,1.22,0,0,0-1,.39,1.35,1.35,0,0,0-.34,1V44a1.21,1.21,0,0,0,.38,1,1.37,1.37,0,0,0,1,.34h5.52v2.93H194.1a4.71,4.71,0,0,1-1.38-.22,4,4,0,0,1-1.37-.73A4.1,4.1,0,0,1,190.29,46a4.22,4.22,0,0,1-.42-2V39.67a4.7,4.7,0,0,1,.22-1.37,4,4,0,0,1,.73-1.37,4,4,0,0,1,1.31-1.06,4.22,4.22,0,0,1,2-.42h5.54a4.7,4.7,0,0,1,1.37.22,4,4,0,0,1,1.37.73,4,4,0,0,1,1.06,1.31A4.2,4.2,0,0,1,203.86,39.67Z"/><path class="cls-2" d="M227.8,43.9a4.47,4.47,0,0,1-.2,1.42,3.81,3.81,0,0,1-.53,1.11,3.55,3.55,0,0,1-.77.82,4.5,4.5,0,0,1-.91.55,4.38,4.38,0,0,1-1,.31,4.47,4.47,0,0,1-.93.1H218a4.41,4.41,0,0,1-1.41-.2,3.82,3.82,0,0,1-1.11-.54,3.5,3.5,0,0,1-.81-.77,4.33,4.33,0,0,1-.55-.91,4.64,4.64,0,0,1-.42-1.89V39.74a4.38,4.38,0,0,1,.43-2,4.12,4.12,0,0,1,2.48-2.07,4.88,4.88,0,0,1,1.39-.22h5.54v3.07H218a1.3,1.3,0,0,0-.94.31,1.23,1.23,0,0,0-.32.91v4.14a1.27,1.27,0,0,0,.32.94,1.19,1.19,0,0,0,.91.32h5.54a1.23,1.23,0,0,0,.94-.32,1.29,1.29,0,0,0,.3-.92V30.05h3.07Z"/><path class="cls-2" d="M243.91,44a4.71,4.71,0,0,1-.22,1.38,4,4,0,0,1-.73,1.37,4.1,4.1,0,0,1-1.31,1.06,4.22,4.22,0,0,1-2,.42h-5.54a4.7,4.7,0,0,1-1.37-.22,4,4,0,0,1-1.37-.73A4.1,4.1,0,0,1,230.34,46a4.22,4.22,0,0,1-.42-2,4.81,4.81,0,0,1,.22-1.38,4,4,0,0,1,.73-1.37,3.85,3.85,0,0,1,1.31-1.06,4.2,4.2,0,0,1,2-.43h5.54v2.93h-5.54a1.2,1.2,0,0,0-1,.39,1.36,1.36,0,0,0-.35.95,1.19,1.19,0,0,0,.4.94,1.42,1.42,0,0,0,.94.33h5.51a1.24,1.24,0,0,0,1-.37A1.38,1.38,0,0,0,241,44V39.67a1.23,1.23,0,0,0-.38-1,1.3,1.3,0,0,0-.94-.36h-6.74V35.45h6.74a4.71,4.71,0,0,1,1.38.22,4,4,0,0,1,1.37.73,4.1,4.1,0,0,1,1.06,1.31,4.2,4.2,0,0,1,.42,2Z"/><path class="cls-2" d="M258.1,38.52h-5.37v9.69h-3.1V38.52h-4V35.45h4V31.28h3.1v4.17h5.37Z"/><path class="cls-2" d="M272.56,44a4.71,4.71,0,0,1-.22,1.38,4,4,0,0,1-.73,1.37,4.1,4.1,0,0,1-1.31,1.06,4.2,4.2,0,0,1-2,.42H262.8a4.71,4.71,0,0,1-1.38-.22,4,4,0,0,1-1.37-.73A4.1,4.1,0,0,1,259,46a4.22,4.22,0,0,1-.42-2,4.81,4.81,0,0,1,.22-1.38,4,4,0,0,1,.73-1.37,3.85,3.85,0,0,1,1.31-1.06,4.25,4.25,0,0,1,2-.43h5.54v2.93H262.8a1.22,1.22,0,0,0-1,.39,1.35,1.35,0,0,0-.34.95,1.19,1.19,0,0,0,.39.94,1.44,1.44,0,0,0,.94.33h5.52a1.22,1.22,0,0,0,1-.37,1.38,1.38,0,0,0,.35-.95V39.67a1.23,1.23,0,0,0-.38-1,1.27,1.27,0,0,0-.93-.36h-6.75V35.45h6.75a4.7,4.7,0,0,1,1.37.22,4,4,0,0,1,1.37.73,4,4,0,0,1,1.06,1.31,4.2,4.2,0,0,1,.42,2Z"/><path class="cls-3" d="M41.7,83.8h0Z"/><path class="cls-2" d="M42.9,0A10.62,10.62,0,0,1,53.32,10.62V73.18A10.62,10.62,0,0,1,42.9,83.79,41.9,41.9,0,0,0,84.39,41.9h0A41.9,41.9,0,0,0,42.9,0Z"/><path class="cls-3" d="M41.7,0h0Z"/><path class="cls-2" d="M31.07,73.18V10.62A10.62,10.62,0,0,1,41.49,0,41.9,41.9,0,0,0,0,41.9H0A41.9,41.9,0,0,0,41.49,83.79,10.62,10.62,0,0,1,31.07,73.18Z"/></g></g></g></svg>