<svg xmlns="http://www.w3.org/2000/svg" width="232.362" height="56.361" viewBox="0 0 232.362 56.361">
  <g id="Group_2880" data-name="Group 2880" transform="translate(-80.187 -17493.375)">
    <text id="orange_data" data-name="orange data" transform="translate(156.548 17529.137)" fill="#fff" font-size="23" font-family="Audiowide-Regular, Audiowide"><tspan x="0" y="0">orange data</tspan></text>
    <g id="Group_166" data-name="Group 166" transform="translate(80.187 17493.375)">
      <path id="Path_290" data-name="Path 290" d="M110.091,7058.773h.137c-.092,0-.183-.006-.275-.008C110,7058.768,110.045,7058.773,110.091,7058.773Z" transform="translate(-81.991 -7002.413)" fill="#fff" style="mix-blend-mode: screen;isolation: isolate"/>
      <path id="Path_291" data-name="Path 291" d="M110.585,7021.275a7.15,7.15,0,0,1,7.022,7.139v42.071a7.149,7.149,0,0,1-7.022,7.137,28.2,28.2,0,0,0,27.962-28.173h0A28.206,28.206,0,0,0,110.585,7021.275Z" transform="translate(-81.673 -7021.27)" fill="#fff"/>
      <path id="Path_292" data-name="Path 292" d="M110.091,7021.271c-.047,0-.092.006-.138.006.092,0,.183-.006.275-.006Z" transform="translate(-81.991 -7021.271)" fill="#fff" style="mix-blend-mode: screen;isolation: isolate"/>
      <path id="Path_293" data-name="Path 293" d="M112.289,7070.485v-42.071a7.15,7.15,0,0,1,7.022-7.139,28.205,28.205,0,0,0-27.962,28.174h0a28.2,28.2,0,0,0,27.962,28.173A7.149,7.149,0,0,1,112.289,7070.485Z" transform="translate(-91.348 -7021.27)" fill="#fff"/>
    </g>
  </g>
</svg>
