<svg xmlns="http://www.w3.org/2000/svg" width="721.572" height="520.058" viewBox="0 0 721.572 520.058">
  <g id="Group_2930" data-name="Group 2930" transform="translate(4425.135 5552.463)">
    <g id="Group_2893" data-name="Group 2893" transform="translate(-4425.135 -5552.463)">
      <g id="Group_2892" data-name="Group 2892" transform="translate(0 0)">
        <path id="Path_6326" data-name="Path 6326" d="M-4442.135-5318.243l6.063-12.809,42.123,6.158-31.183-29.675,4.85-10.248,42.719,5.3-31.468-28.67,5.915-12.5,45.948,44.455-4.923,10.4-41.359-4.562,29.75,29.092-4.923,10.4Z" transform="translate(4442.135 5589.412)" fill="#263c95"/>
        <path id="Path_6327" data-name="Path 6327" d="M-4380.321-5428.072l7.381-9.708,63.79,16.139-8.369,11.007-14.06-3.787-15.387,20.235,7.408,12.537-8.162,10.733Zm36.587,10.342-20.353-5.442,10.685,18.157Z" transform="translate(4439.309 5591.108)" fill="#263c95"/>
        <path id="Path_6328" data-name="Path 6328" d="M-4313.352-5451.31l-41.925-10.095,11.107-10.752,27.089,7.364-6.3-27.494,10.8-10.453,8.549,42.046,16.666,17.216-9.5,9.2Z" transform="translate(4438.165 5594.077)" fill="#263c95"/>
        <path id="Path_6329" data-name="Path 6329" d="M-4254.513-5528.173l-15.73,9.34-6.227-10.487,42.834-25.433,6.226,10.486-15.729,9.34,24.468,41.21-11.373,6.753Z" transform="translate(4434.563 5596.454)" fill="#263c95"/>
        <path id="Path_6330" data-name="Path 6330" d="M-4208.479-5533.7l-.059-.161c-5.987-16.009,1.739-33.844,19.115-40.342s34.688,1.791,40.675,17.8l.06.162c5.986,16.008-1.739,33.844-19.115,40.341S-4202.492-5517.691-4208.479-5533.7Zm46.9-17.539-.06-.161c-3.61-9.653-13.7-15.05-23.673-11.32s-13.945,14.2-10.335,23.854l.06.161c3.61,9.652,13.7,15.05,23.673,11.32S-4157.969-5541.586-4161.579-5551.239Z" transform="translate(4431.549 5597.445)" fill="#263c95"/>
        <path id="Path_6331" data-name="Path 6331" d="M-4104.919-5565.156l-.01-.171c-1.077-17.058,11.329-31.867,29.5-33.014,10.8-.682,17.5,1.822,24.091,6.742l-7.682,10.553c-4.872-3.564-9.126-5.534-16.069-5.1-9.6.606-16.693,9.574-16.05,19.773l.011.172c.692,10.972,8.743,18.553,19.372,17.882a21.1,21.1,0,0,0,12.2-4.384l-.541-8.572-13.285.838-.72-11.4,26.058-1.644,1.644,26.057a39.019,39.019,0,0,1-25.029,11.132C-4090.114-5535.109-4103.8-5547.413-4104.919-5565.156Z" transform="translate(4426.724 5598.452)" fill="#263c95"/>
        <path id="Path_6332" data-name="Path 6332" d="M-4030.6-5568.339l.028-.17c2.775-16.863,18.353-28.487,36.657-25.475s29.195,18.816,26.42,35.68l-.028.169c-2.775,16.864-18.353,28.488-36.657,25.476S-4033.375-5551.476-4030.6-5568.339Zm49.4,8.13.029-.17c1.673-10.169-4.39-19.87-14.9-21.6s-19.162,5.376-20.836,15.545l-.028.17c-1.673,10.169,4.39,19.871,14.9,21.6S-3982.868-5550.041-3981.2-5560.209Z" transform="translate(4423.343 5598.27)" fill="#263c95"/>
        <path id="Path_6333" data-name="Path 6333" d="M-3971.427-5515.854c5.828,1.235,9.525-.738,10.608-5.531l-5.071-1.623,4.188-13.087,13.251,4.242-3.535,11.042c-3.456,10.8-10.242,13.4-20.028,10.451Z" transform="translate(4420.646 5595.602)" fill="#263c95"/>
        <path id="Path_6334" data-name="Path 6334" d="M-3880.681-5541.515l-15.854-9.125,6.083-10.57,43.171,24.85-6.084,10.57-15.854-9.126-23.907,41.533-11.463-6.6Z" transform="translate(4417.564 5596.75)" fill="#263c95"/>
        <path id="Path_6335" data-name="Path 6335" d="M-3830.9-5523.921l34.727,29.165-7.567,9.01-24.665-20.714-7.843,9.34,21.7,18.229-7.568,9.01-21.7-18.229-8.12,9.669,24.993,20.989-7.568,9.011-35.056-29.44Z" transform="translate(4415.963 5595.045)" fill="#263c95"/>
        <path id="Path_6336" data-name="Path 6336" d="M-3766.155-5461.574l7.728,9.435-30.52,58.3-8.762-10.7,6.949-12.8L-3806.869-5437l-13.916,4.292-8.545-10.433Zm-18.561,33.188,10.023-18.535-20.146,6.175Z" transform="translate(4414.124 5592.195)" fill="#263c95"/>
        <path id="Path_6337" data-name="Path 6337" d="M-3730.25-5414.141l6.651,12.611-15.115,25.838,29.859,2.118,6.651,12.611-53.178,28.047-6.13-11.624,34.717-18.31-30.607-2.986-.16-.3,14.673-26.674-34.489,18.191-6.05-11.472Z" transform="translate(4412.026 5590.027)" fill="#263c95"/>
        <path id="Path_6338" data-name="Path 6338" d="M-3737.531-5322.289l4.7,13.1-12.934,4.638-4.7-13.1Zm41.805-15.722,1.618-.579,5.161,14.389-1.617.581-37.095,9.013-2.436-6.791Z" transform="translate(4410.519 5586.574)" fill="#263c95"/>
      </g>
    </g>
    <g id="Group_2929" data-name="Group 2929" transform="translate(924.471 -1475.814)">
      <path id="Path_6368" data-name="Path 6368" d="M-5084.748-3893.691a168.945,168.945,0,0,0-61.51,61.4,15.47,15.47,0,0,0,7.406,22.094l102.781,42.618a12.059,12.059,0,0,0,15.762-15.75l-42.547-102.828A15.41,15.41,0,0,0-5084.748-3893.691Z" transform="translate(1.265 1.258)" fill="#ef6624"/>
      <path id="Path_6369" data-name="Path 6369" d="M-5039.145-3761.9l-102.781-42.618a15.468,15.468,0,0,0-20.867,10.371,168.9,168.9,0,0,0,.016,86.909,15.407,15.407,0,0,0,20.8,10.167l102.829-42.548A12.059,12.059,0,0,0-5039.145-3761.9Z" transform="translate(0 6.924)" fill="#ef6624"/>
      <path id="Path_6370" data-name="Path 6370" d="M-5036.08-3732.8l-102.829,42.548a15.411,15.411,0,0,0-7.533,21.89,168.926,168.926,0,0,0,61.4,61.51,15.467,15.467,0,0,0,22.093-7.4l42.619-102.782A12.059,12.059,0,0,0-5036.08-3732.8Z" transform="translate(1.258 11.452)" fill="#ef6624"/>
      <path id="Path_6371" data-name="Path 6371" d="M-5057.175-3889.232l42.549,102.829a12.058,12.058,0,0,0,22.28.008l42.618-102.782a15.468,15.468,0,0,0-10.371-20.867,168.917,168.917,0,0,0-86.91.016A15.408,15.408,0,0,0-5057.175-3889.232Z" transform="translate(6.929 0)" fill="#ef6624"/>
      <path id="Path_6372" data-name="Path 6372" d="M-4969.777-3767.559l102.828-42.548a15.41,15.41,0,0,0,7.533-21.89,168.908,168.908,0,0,0-61.4-61.51,15.468,15.468,0,0,0-22.094,7.4l-42.618,102.783A12.059,12.059,0,0,0-4969.777-3767.559Z" transform="translate(11.454 1.265)" fill="#ef6624"/>
      <path id="Path_6373" data-name="Path 6373" d="M-5014.653-3713.509l-42.618,102.782a15.468,15.468,0,0,0,10.371,20.867,168.92,168.92,0,0,0,86.91-.016,15.407,15.407,0,0,0,10.167-20.8l-42.548-102.829A12.059,12.059,0,0,0-5014.653-3713.509Z" transform="translate(6.923 12.257)" fill="#ef6624"/>
      <path id="Path_6374" data-name="Path 6374" d="M-4966.257-3739.6l102.781,42.618a15.469,15.469,0,0,0,20.868-10.371,168.915,168.915,0,0,0-.015-86.909,15.409,15.409,0,0,0-20.8-10.167l-102.829,42.548A12.058,12.058,0,0,0-4966.257-3739.6Z" transform="translate(12.257 6.929)" fill="#ef6624"/>
      <path id="Path_6375" data-name="Path 6375" d="M-4825.4-3595.337l-27.524-27.524a169.848,169.848,0,0,0,15.82-22.7,15.47,15.47,0,0,0-7.4-22.095l-102.782-42.618a12.058,12.058,0,0,0-15.762,15.748L-4920.5-3591.7a15.41,15.41,0,0,0,21.891,7.532,168.866,168.866,0,0,0,23.071-16.042l27.506,27.506a11.074,11.074,0,0,0,15.66,0l6.976-6.976A11.075,11.075,0,0,0-4825.4-3595.337Z" transform="translate(12.867 12.869)" fill="#ef6624"/>
    </g>
  </g>
</svg>
